<svg xmlns="http://www.w3.org/2000/svg" viewBox="0 0 262.04 73.82"><defs><style>.cls-1{fill:#9ca3af;}.cls-2{fill:#fff;}.cls-3{fill:#8dd6db;}.cls-4{fill:#c6f4f2;}.cls-5{fill:#3dd5d8;}.cls-6{fill:none;stroke:#3dd5d8;stroke-miterlimit:10;stroke-width:0.5px;}</style></defs><g id="レイヤー_2" data-name="レイヤー 2"><g id="レイヤー_2-2" data-name="レイヤー 2"><rect class="cls-1" width="262.04" height="73.82" rx="17.14"/><rect class="cls-2" x="4.66" y="4.97" width="252.72" height="63.89" rx="13.03"/></g><g id="レイヤー_1-2" data-name="レイヤー 1"><rect class="cls-3" x="115.26" y="11.12" width="42.63" height="34.1"/><rect class="cls-1" x="119.55" y="15.11" width="34.04" height="26.13"/><polygon class="cls-1" points="83.34 26.56 83.34 31.17 94.2 31.17 94.2 35.98 105.67 28.86 94.2 21.46 94.2 26.56 83.34 26.56"/><rect class="cls-1" x="20.67" y="14.96" width="54.87" height="43.9"/><path class="cls-2" d="M57.48,36a11.76,11.76,0,0,0,1.44-1.44,6.51,6.51,0,0,0,.9-2.94L50.3,33.84s.91-5.44-3.63-6.34a5.9,5.9,0,0,0-5.43,2,7.49,7.49,0,0,0-1.08,2H37.24a4.75,4.75,0,0,0,1,2.26,3.8,3.8,0,0,0,1.21.74,13.2,13.2,0,0,0,.08,2.71c.9,6.8,9.26,8.06,14.13,6.58,6-1.82,6.8-8.32,6.8-8.32Zm-12.7-2.87a1.67,1.67,0,1,1,1.67-1.66A1.66,1.66,0,0,1,44.78,33.09Z"/><path class="cls-2" d="M143.86,27.44A9.68,9.68,0,0,0,145,26.32a5,5,0,0,0,.7-2.29l-7.4,1.76s.71-4.23-2.82-4.93a4.58,4.58,0,0,0-4.22,1.55A6,6,0,0,0,130.4,24h-2.26a3.73,3.73,0,0,0,.8,1.76,3,3,0,0,0,.95.57,10,10,0,0,0,.05,2.1c.71,5.29,7.2,6.26,11,5.11,4.64-1.41,5.29-6.46,5.29-6.46ZM134,25.2a1.29,1.29,0,1,1,1.3-1.29A1.29,1.29,0,0,1,134,25.2Z"/><rect class="cls-4" x="162.19" y="27.52" width="42.63" height="34.1"/><rect class="cls-1" x="166.49" y="31.51" width="34.04" height="26.13"/><path class="cls-5" d="M220.64,11V32.8h27.21V11Zm24.47,19.23H223.38V13.58h21.73Z"/><path class="cls-2" d="M190.8,43.83a8.72,8.72,0,0,0,1.11-1.11,5.1,5.1,0,0,0,.71-2.29l-7.4,1.76s.7-4.23-2.82-4.93a4.57,4.57,0,0,0-4.22,1.55,5.88,5.88,0,0,0-.84,1.53h-2.27a3.66,3.66,0,0,0,.81,1.75,2.93,2.93,0,0,0,.94.57,10.84,10.84,0,0,0,.06,2.11c.7,5.29,7.19,6.26,11,5.11,4.64-1.41,5.28-6.46,5.28-6.46Zm-9.87-2.23a1.29,1.29,0,1,1,1.29-1.29A1.29,1.29,0,0,1,180.93,41.6Z"/><rect class="cls-6" x="225.02" y="14.85" width="18.62" height="13.97"/></g></g></svg>