<svg xmlns="http://www.w3.org/2000/svg" viewBox="0 0 262.04 73.82"><defs><style>.cls-1{fill:#fff;}.cls-2{fill:#f5f6f7;}.cls-3{fill:#dce0e5;}.cls-4{fill:#8dd6db;}.cls-5{fill:#9ca3af;}.cls-6{fill:#c6f4f2;}.cls-7{fill:#3dd5d8;}.cls-8{fill:none;stroke:#3dd5d8;stroke-miterlimit:10;stroke-width:0.5px;}</style></defs><g id="レイヤー_2" data-name="レイヤー 2"><g id="レイヤー_2-2" data-name="レイヤー 2"><rect class="cls-1" width="262.04" height="73.82" rx="17.14"/><path class="cls-2" d="M246.52,71.61H212.83V2.44h33.69c7.1,0,12.86,6.32,12.86,14.11v41C259.38,65.29,253.62,71.61,246.52,71.61Z"/><path class="cls-3" d="M244.9,0H17.14A17.14,17.14,0,0,0,0,17.14V56.68A17.14,17.14,0,0,0,17.14,73.82H244.9A17.14,17.14,0,0,0,262,56.68V17.14A17.14,17.14,0,0,0,244.9,0Zm12.48,55.82a13,13,0,0,1-13,13H17.69a13,13,0,0,1-13-13V18a13,13,0,0,1,13-13H244.35a13,13,0,0,1,13,13Z"/></g><g id="レイヤー_1-2" data-name="レイヤー 1"><rect class="cls-4" x="115.26" y="11.57" width="42.63" height="34.1"/><rect class="cls-5" x="119.55" y="15.56" width="34.04" height="26.13"/><polygon class="cls-3" points="83.34 27 83.34 31.61 94.2 31.61 94.2 36.42 105.67 29.3 94.2 21.91 94.2 27 83.34 27"/><rect class="cls-5" x="20.67" y="15.41" width="54.87" height="43.9"/><path class="cls-1" d="M57.48,36.4A11.36,11.36,0,0,0,58.92,35a6.53,6.53,0,0,0,.9-2.95L50.3,34.29s.91-5.44-3.63-6.35a5.9,5.9,0,0,0-5.43,2,7.65,7.65,0,0,0-1.08,2H37.24a4.73,4.73,0,0,0,1,2.25,3.8,3.8,0,0,0,1.21.74,13.2,13.2,0,0,0,.08,2.71c.9,6.81,9.26,8.06,14.13,6.58,6-1.82,6.8-8.32,6.8-8.32Zm-12.7-2.87a1.66,1.66,0,1,1,1.67-1.66A1.66,1.66,0,0,1,44.78,33.53Z"/><path class="cls-1" d="M143.86,27.88A9.68,9.68,0,0,0,145,26.76a5,5,0,0,0,.7-2.29l-7.4,1.76S139,22,135.46,21.3a4.6,4.6,0,0,0-4.22,1.55,6.12,6.12,0,0,0-.84,1.54h-2.26a3.73,3.73,0,0,0,.8,1.76,2.86,2.86,0,0,0,.95.57,10.07,10.07,0,0,0,.05,2.11c.71,5.28,7.2,6.26,11,5.11,4.64-1.41,5.29-6.46,5.29-6.46ZM134,25.65a1.3,1.3,0,1,1,1.3-1.29A1.29,1.29,0,0,1,134,25.65Z"/><rect class="cls-6" x="162.19" y="27.97" width="42.63" height="34.1"/><rect class="cls-5" x="166.49" y="31.95" width="34.04" height="26.13"/><path class="cls-7" d="M220.64,11.47V33.25h27.21V11.47ZM245.11,30.7H223.38V14h21.73Z"/><path class="cls-1" d="M190.8,44.28a9.13,9.13,0,0,0,1.11-1.12,5.1,5.1,0,0,0,.71-2.29l-7.4,1.76s.7-4.23-2.82-4.93a4.59,4.59,0,0,0-4.22,1.55,6.12,6.12,0,0,0-.84,1.54h-2.27a3.68,3.68,0,0,0,.81,1.76,2.93,2.93,0,0,0,.94.57,10.86,10.86,0,0,0,.06,2.11c.7,5.28,7.19,6.26,11,5.1,4.64-1.4,5.28-6.45,5.28-6.45Zm-9.87-2.23a1.3,1.3,0,1,1,1.29-1.3A1.3,1.3,0,0,1,180.93,42.05Z"/><rect class="cls-8" x="225.02" y="15.3" width="18.62" height="13.97"/></g></g></svg>