<svg xmlns="http://www.w3.org/2000/svg" viewBox="0 0 277.41 71.79"><defs><style>.cls-1{fill:#dce0e5;}.cls-2{fill:#9ca3af;}.cls-3{fill:#fff;}.cls-4{fill:#8dd6db;}.cls-5{fill:#c6f4f2;}.cls-6{fill:#3dd5d8;}.cls-7{fill:none;stroke:#3dd5d8;stroke-miterlimit:10;stroke-width:0.5px;}</style></defs><g id="レイヤー_2" data-name="レイヤー 2"><g id="レイヤー_2-2" data-name="レイヤー 2"><rect class="cls-1" width="277.41" height="71.79"/></g><g id="レイヤー_1-2" data-name="レイヤー 1"><polygon class="cls-2" points="111.94 26.12 111.94 30.72 122.8 30.72 122.8 35.53 134.27 28.41 122.8 21.02 122.8 26.12 111.94 26.12"/><rect class="cls-2" x="50.26" y="14.52" width="54.87" height="43.9"/><path class="cls-3" d="M87.08,35.52a11.26,11.26,0,0,0,1.43-1.44,6.46,6.46,0,0,0,.91-2.95L79.9,33.4s.91-5.44-3.63-6.35a5.89,5.89,0,0,0-5.43,2,7.33,7.33,0,0,0-1.08,2H66.84a4.84,4.84,0,0,0,1,2.26,3.91,3.91,0,0,0,1.22.73,13.28,13.28,0,0,0,.08,2.72c.9,6.8,9.25,8.05,14.13,6.57,6-1.81,6.8-8.31,6.8-8.31Zm-12.7-2.88A1.66,1.66,0,1,1,76,31,1.66,1.66,0,0,1,74.38,32.64Z"/><rect class="cls-4" x="143.86" y="10.9" width="42.63" height="34.1"/><rect class="cls-2" x="148.15" y="14.89" width="34.04" height="26.13"/><path class="cls-3" d="M172.46,27.21a8.72,8.72,0,0,0,1.11-1.11,5,5,0,0,0,.71-2.29l-7.4,1.76s.7-4.23-2.82-4.93a4.58,4.58,0,0,0-4.22,1.55,6,6,0,0,0-.84,1.53h-2.26a3.6,3.6,0,0,0,.8,1.75,2.93,2.93,0,0,0,.94.57,10.84,10.84,0,0,0,.06,2.11c.71,5.29,7.19,6.26,11,5.11,4.64-1.41,5.29-6.46,5.29-6.46ZM162.59,25a1.29,1.29,0,1,1,1.29-1.29A1.29,1.29,0,0,1,162.59,25Z"/><rect class="cls-5" x="192.08" y="27.7" width="42.63" height="34.1"/><rect class="cls-2" x="196.37" y="31.68" width="34.04" height="26.13"/><path class="cls-3" d="M220.68,44a9.13,9.13,0,0,0,1.11-1.12,5.1,5.1,0,0,0,.71-2.29l-7.4,1.76s.7-4.22-2.82-4.93A4.59,4.59,0,0,0,208.06,39a6.12,6.12,0,0,0-.84,1.54H205a3.62,3.62,0,0,0,.8,1.76,2.93,2.93,0,0,0,.94.57,10.86,10.86,0,0,0,.06,2.11c.7,5.28,7.19,6.26,11,5.11,4.64-1.41,5.29-6.46,5.29-6.46Zm-9.87-2.23a1.3,1.3,0,1,1,1.29-1.3A1.3,1.3,0,0,1,210.81,41.78Z"/></g><g id="レイヤー_4" data-name="レイヤー 4"><rect class="cls-3" x="37.63" y="5.38" width="24.69" height="19.12"/><path class="cls-6" d="M36,5V26.82H63.18V5ZM60.44,24.27H38.71V7.59H60.44Z"/><rect class="cls-7" x="40.29" y="8.98" width="18.62" height="13.97"/></g></g></svg>