<svg xmlns="http://www.w3.org/2000/svg" viewBox="0 0 277.41 71.79"><defs><style>.cls-1{fill:#dce0e5;}.cls-2,.cls-3{font-size:9.23px;font-family:Arial-BoldMT, Arial;font-weight:700;}.cls-2,.cls-5{fill:#9ca3af;}.cls-3{fill:#3dd5d8;}.cls-4{fill:#8dd6db;}.cls-6{fill:#fff;}.cls-7{fill:#c6f4f2;}</style></defs><g id="レイヤー_2" data-name="レイヤー 2"><g id="レイヤー_2-2" data-name="レイヤー 2"><rect class="cls-1" width="277.41" height="71.79"/></g><g id="レイヤー_1-2" data-name="レイヤー 1"><text class="cls-2" transform="translate(179.13 55.05)">0.png</text><text class="cls-2" transform="translate(227.19 23.9)">1.png</text><text class="cls-3" transform="translate(217.13 23.9)">A-</text><text class="cls-3" transform="translate(168.24 54.82)">A-</text><rect class="cls-4" x="160.59" y="11.68" width="42.63" height="34.1"/><rect class="cls-5" x="164.88" y="15.67" width="34.04" height="26.13"/><path class="cls-6" d="M189.19,28a8.9,8.9,0,0,0,1.12-1.12,5,5,0,0,0,.7-2.29l-7.4,1.77s.71-4.23-2.82-4.94A4.6,4.6,0,0,0,176.57,23a6.12,6.12,0,0,0-.84,1.54h-2.26a3.73,3.73,0,0,0,.8,1.76,3,3,0,0,0,.95.57,10.07,10.07,0,0,0,.05,2.11c.71,5.28,7.2,6.26,11,5.11,4.64-1.41,5.29-6.46,5.29-6.46Zm-9.86-2.23a1.3,1.3,0,1,1,1.29-1.29A1.3,1.3,0,0,1,179.33,25.76Z"/><rect class="cls-7" x="208.85" y="28.08" width="42.63" height="34.1"/><rect class="cls-5" x="213.15" y="32.06" width="34.04" height="26.13"/><path class="cls-6" d="M237.45,44.39a8.9,8.9,0,0,0,1.12-1.12,5,5,0,0,0,.7-2.29l-7.4,1.76s.71-4.22-2.81-4.93a4.58,4.58,0,0,0-4.22,1.55A6.12,6.12,0,0,0,224,40.9h-2.27a3.73,3.73,0,0,0,.8,1.76,3.08,3.08,0,0,0,.95.57,9.49,9.49,0,0,0,.06,2.11c.7,5.28,7.19,6.26,11,5.1C239.16,49,239.8,44,239.8,44Zm-9.86-2.23a1.3,1.3,0,1,1,1.29-1.3A1.29,1.29,0,0,1,227.59,42.16Z"/><text class="cls-2" transform="translate(45.45 55.05)">0.png</text><text class="cls-2" transform="translate(93.51 23.9)">1.png</text><rect class="cls-4" x="26.91" y="11.68" width="42.63" height="34.1"/><rect class="cls-5" x="31.2" y="15.67" width="34.04" height="26.13"/><path class="cls-6" d="M55.51,28a9.68,9.68,0,0,0,1.12-1.12,5,5,0,0,0,.7-2.29l-7.4,1.77s.71-4.23-2.82-4.94A4.6,4.6,0,0,0,42.89,23a6.12,6.12,0,0,0-.84,1.54H39.79a3.73,3.73,0,0,0,.8,1.76,2.86,2.86,0,0,0,.95.57,10.07,10.07,0,0,0,.05,2.11c.71,5.28,7.2,6.26,11,5.11,4.64-1.41,5.29-6.46,5.29-6.46Zm-9.87-2.23a1.3,1.3,0,1,1,1.3-1.29A1.29,1.29,0,0,1,45.64,25.76Z"/><rect class="cls-7" x="75.17" y="28.08" width="42.63" height="34.1"/><rect class="cls-5" x="79.46" y="32.06" width="34.04" height="26.13"/><path class="cls-6" d="M103.77,44.39a8.9,8.9,0,0,0,1.12-1.12,5,5,0,0,0,.7-2.29l-7.4,1.76s.71-4.22-2.82-4.93a4.6,4.6,0,0,0-4.22,1.55,6.12,6.12,0,0,0-.84,1.54H88.05a3.73,3.73,0,0,0,.8,1.76,3,3,0,0,0,1,.57,10.09,10.09,0,0,0,0,2.11c.71,5.28,7.2,6.26,11,5.1,4.64-1.4,5.29-6.45,5.29-6.45Zm-9.86-2.23a1.3,1.3,0,1,1,1.29-1.3A1.3,1.3,0,0,1,93.91,42.16Z"/><polygon class="cls-5" points="128.89 28.04 128.89 32.65 139.75 32.65 139.75 37.46 151.22 30.34 139.75 22.95 139.75 28.04 128.89 28.04"/></g></g></svg>