<svg xmlns="http://www.w3.org/2000/svg" viewBox="0 0 224.9 50.5"><defs><style>.cls-1,.cls-2{font-size:9.23px;font-family:Arial-BoldMT, Arial;font-weight:700;}.cls-1,.cls-4{fill:#9ca3af;}.cls-2{fill:#3dd5d8;}.cls-3{fill:#8dd6db;}.cls-5{fill:#fff;}.cls-6{fill:#c6f4f2;}</style></defs><g id="レイヤー_2" data-name="レイヤー 2"><g id="レイヤー_1-2" data-name="レイヤー 1"><text class="cls-1" transform="translate(152.23 43.38)">0.png</text><text class="cls-1" transform="translate(200.28 12.22)">1.png</text><text class="cls-2" transform="translate(190.22 12.22)">A-</text><text class="cls-2" transform="translate(141.34 43.14)">A-</text><rect class="cls-3" x="133.68" width="42.63" height="34.1"/><rect class="cls-4" x="137.98" y="3.99" width="34.04" height="26.13"/><path class="cls-5" d="M162.28,16.31a9.28,9.28,0,0,0,1.12-1.11,5,5,0,0,0,.7-2.29l-7.4,1.76s.71-4.23-2.81-4.94a4.58,4.58,0,0,0-4.22,1.55,6.12,6.12,0,0,0-.84,1.54h-2.27a3.71,3.71,0,0,0,.8,1.75,3.08,3.08,0,0,0,.95.57,9.47,9.47,0,0,0,.06,2.11c.7,5.29,7.19,6.26,11,5.11,4.64-1.41,5.28-6.46,5.28-6.46Zm-9.86-2.23a1.29,1.29,0,1,1,1.29-1.29A1.29,1.29,0,0,1,152.42,14.08Z"/><rect class="cls-6" x="181.94" y="16.4" width="42.63" height="34.1"/><rect class="cls-4" x="186.24" y="20.39" width="34.04" height="26.13"/><path class="cls-5" d="M210.54,32.71a8.9,8.9,0,0,0,1.12-1.12,5,5,0,0,0,.7-2.29L205,31.07s.7-4.23-2.82-4.94a4.59,4.59,0,0,0-4.22,1.55,6.12,6.12,0,0,0-.84,1.54h-2.27a3.73,3.73,0,0,0,.8,1.76,3.08,3.08,0,0,0,.95.57,10.11,10.11,0,0,0,.06,2.11c.7,5.28,7.19,6.26,11,5.11,4.64-1.41,5.28-6.46,5.28-6.46Zm-9.86-2.23A1.3,1.3,0,1,1,202,29.19,1.29,1.29,0,0,1,200.68,30.48Z"/><text class="cls-1" transform="translate(18.54 43.38)">0.png</text><text class="cls-1" transform="translate(66.6 12.22)">1.png</text><rect class="cls-3" width="42.63" height="34.1"/><rect class="cls-4" x="4.29" y="3.99" width="34.04" height="26.13"/><path class="cls-5" d="M28.6,16.31a9.28,9.28,0,0,0,1.12-1.11,5,5,0,0,0,.7-2.29L23,14.67s.71-4.23-2.82-4.94A4.6,4.6,0,0,0,16,11.28a6.12,6.12,0,0,0-.84,1.54H12.88a3.71,3.71,0,0,0,.8,1.75,3,3,0,0,0,1,.57,10.07,10.07,0,0,0,0,2.11c.71,5.29,7.2,6.26,11,5.11C30.3,21,31,15.9,31,15.9Zm-9.86-2.23A1.29,1.29,0,1,1,20,12.79,1.3,1.3,0,0,1,18.74,14.08Z"/><rect class="cls-6" x="48.26" y="16.4" width="42.63" height="34.1"/><rect class="cls-4" x="52.56" y="20.39" width="34.04" height="26.13"/><path class="cls-5" d="M76.86,32.71A8.9,8.9,0,0,0,78,31.59a5,5,0,0,0,.7-2.29l-7.4,1.77s.71-4.23-2.81-4.94a4.58,4.58,0,0,0-4.22,1.55,6.12,6.12,0,0,0-.84,1.54H61.14a3.73,3.73,0,0,0,.8,1.76,3.08,3.08,0,0,0,1,.57A9.47,9.47,0,0,0,63,33.65c.7,5.28,7.19,6.26,11,5.11,4.64-1.41,5.28-6.46,5.28-6.46ZM67,30.48a1.3,1.3,0,1,1,1.29-1.29A1.29,1.29,0,0,1,67,30.48Z"/><polygon class="cls-4" points="101.98 16.37 101.98 20.97 112.84 20.97 112.84 25.78 124.31 18.66 112.84 11.27 112.84 16.37 101.98 16.37"/></g></g></svg>