<svg xmlns="http://www.w3.org/2000/svg" viewBox="0 0 262.04 73.82"><defs><style>.cls-1{fill:#fff;}.cls-2{fill:#f5f6f7;}.cls-3{fill:#dce0e5;}.cls-4,.cls-5{font-size:9.23px;font-family:Arial-BoldMT, Arial;font-weight:700;}.cls-4,.cls-7{fill:#9ca3af;}.cls-5{fill:#3dd5d8;}.cls-6{fill:#8dd6db;}.cls-8{fill:#c6f4f2;}</style></defs><g id="レイヤー_2" data-name="レイヤー 2"><g id="レイヤー_2-2" data-name="レイヤー 2"><rect class="cls-1" width="262.04" height="73.82" rx="17.14"/><path class="cls-2" d="M246.52,71.61H212.83V2.44h33.69c7.1,0,12.86,6.32,12.86,14.11v41C259.38,65.29,253.62,71.61,246.52,71.61Z"/><path class="cls-3" d="M244.9,0H17.14A17.14,17.14,0,0,0,0,17.14V56.68A17.14,17.14,0,0,0,17.14,73.82H244.9A17.14,17.14,0,0,0,262,56.68V17.14A17.14,17.14,0,0,0,244.9,0Zm12.48,55.82a13,13,0,0,1-13,13H17.69a13,13,0,0,1-13-13V18a13,13,0,0,1,13-13H244.35a13,13,0,0,1,13,13Z"/></g><g id="レイヤー_1-2" data-name="レイヤー 1"><text class="cls-4" transform="translate(170.78 55.42)">0.png</text><text class="cls-4" transform="translate(218.84 24.26)">1.png</text><text class="cls-5" transform="translate(208.77 24.26)">A-</text><text class="cls-5" transform="translate(159.89 55.19)">A-</text><rect class="cls-6" x="152.24" y="12.04" width="42.63" height="34.1"/><rect class="cls-7" x="156.53" y="16.03" width="34.04" height="26.13"/><path class="cls-1" d="M180.84,28.35A9.54,9.54,0,0,0,182,27.24a5,5,0,0,0,.71-2.29l-7.4,1.76s.7-4.23-2.82-4.93a4.59,4.59,0,0,0-4.22,1.54,6.12,6.12,0,0,0-.84,1.54h-2.26a3.71,3.71,0,0,0,.8,1.75,2.93,2.93,0,0,0,.94.57,10.84,10.84,0,0,0,.06,2.11c.71,5.29,7.19,6.26,11,5.11,4.64-1.41,5.29-6.46,5.29-6.46ZM171,26.12a1.29,1.29,0,1,1,1.3-1.29A1.29,1.29,0,0,1,171,26.12Z"/><rect class="cls-8" x="200.5" y="28.44" width="42.63" height="34.1"/><rect class="cls-7" x="204.79" y="32.43" width="34.04" height="26.13"/><path class="cls-1" d="M229.1,44.75a9.68,9.68,0,0,0,1.12-1.12,5,5,0,0,0,.7-2.29l-7.4,1.77s.71-4.23-2.82-4.94a4.6,4.6,0,0,0-4.22,1.55,6.12,6.12,0,0,0-.84,1.54h-2.26a3.71,3.71,0,0,0,.8,1.75,2.86,2.86,0,0,0,.95.57,10.07,10.07,0,0,0,.05,2.11c.71,5.28,7.2,6.26,11,5.11,4.64-1.41,5.29-6.46,5.29-6.46Zm-9.86-2.23a1.3,1.3,0,1,1,1.29-1.29A1.3,1.3,0,0,1,219.24,42.52Z"/><text class="cls-4" transform="translate(37.1 55.42)">0.png</text><text class="cls-4" transform="translate(85.16 24.26)">1.png</text><rect class="cls-6" x="18.56" y="12.04" width="42.63" height="34.1"/><rect class="cls-7" x="22.85" y="16.03" width="34.04" height="26.13"/><path class="cls-1" d="M47.16,28.35a9.54,9.54,0,0,0,1.11-1.11A5.1,5.1,0,0,0,49,25l-7.4,1.76s.7-4.23-2.82-4.93a4.58,4.58,0,0,0-4.22,1.54,6.12,6.12,0,0,0-.84,1.54H31.44a3.6,3.6,0,0,0,.8,1.75,2.93,2.93,0,0,0,.94.57,10.84,10.84,0,0,0,.06,2.11c.71,5.29,7.19,6.26,11,5.11,4.64-1.41,5.29-6.46,5.29-6.46Zm-9.87-2.23a1.29,1.29,0,1,1,1.29-1.29A1.29,1.29,0,0,1,37.29,26.12Z"/><rect class="cls-8" x="66.82" y="28.44" width="42.63" height="34.1"/><rect class="cls-7" x="71.11" y="32.43" width="34.04" height="26.13"/><path class="cls-1" d="M95.42,44.75a9.13,9.13,0,0,0,1.11-1.12,4.94,4.94,0,0,0,.71-2.29l-7.4,1.77s.7-4.23-2.82-4.94a4.6,4.6,0,0,0-4.22,1.55A6.12,6.12,0,0,0,82,41.26H79.7A3.71,3.71,0,0,0,80.5,43a2.93,2.93,0,0,0,.94.57,10.84,10.84,0,0,0,.06,2.11c.71,5.28,7.19,6.26,11,5.11,4.64-1.41,5.29-6.46,5.29-6.46Zm-9.87-2.23a1.3,1.3,0,1,1,1.3-1.29A1.29,1.29,0,0,1,85.55,42.52Z"/><polygon class="cls-3" points="120.53 28.41 120.53 33.01 131.4 33.01 131.4 37.82 142.87 30.7 131.4 23.31 131.4 28.41 120.53 28.41"/></g></g></svg>