<svg xmlns="http://www.w3.org/2000/svg" viewBox="0 0 188.15 65.2"><defs><style>.cls-1,.cls-3{fill:#9ca3af;}.cls-2{fill:#fff;}.cls-3{font-size:12px;font-family:Arial-BoldMT, Arial;font-weight:700;}</style></defs><g id="レイヤー_2" data-name="レイヤー 2"><g id="レイヤー_1-2" data-name="レイヤー 1"><polygon class="cls-1" points="66.11 28.38 66.11 32.98 92.27 32.98 92.27 37.8 103.74 30.67 92.27 23.28 92.27 28.38 66.11 28.38"/><rect class="cls-1" width="72.52" height="48.71"/><path class="cls-2" d="M47.82,20.64a12.2,12.2,0,0,0,.83-4.45c0-2.06-.37-3.86-1-4.37a.67.67,0,0,0-.56-.18c-.34.06-.55.35-.85.74A5.09,5.09,0,0,1,44.52,14c-1.4.72-3.23,1.46-3.56,1.6a18.68,18.68,0,0,0-4.11-.32,20.9,20.9,0,0,0-2.72.23A13.69,13.69,0,0,1,29.7,14a9.38,9.38,0,0,1-1.5-1.54c-.46-.55-.73-.88-1.08-.94a.61.61,0,0,0-.5.12c-.66.51-1,2.9-1.14,4.38a9.31,9.31,0,0,0,.76,4.65l.06.08c0,.11-.1.21-.14.32-1.87,4.91-3.47,11.38-.44,14.35,3.64,3.56,9.77,4.19,12.1,4.19a4.89,4.89,0,0,0,.58,0c2.35-.16,8.33-1.8,10.76-5.63C51.69,30,49,23.28,47.82,20.64ZM42.16,23a9.41,9.41,0,0,1,1.88.2,2.05,2.05,0,0,1-2,1.63A2,2,0,0,1,40,23.47,6.48,6.48,0,0,1,42.16,23Zm-4.85,5.07c2,.06,1.84.82,1.78,1.36s-.91.84-1.36,1.05a.36.36,0,0,1,0,.11L37.81,32l.72,0h0a.31.31,0,0,1,0,.62l-2.12.07h0a.31.31,0,0,1-.31-.3.31.31,0,0,1,.3-.32l.78,0-.06-1.43a.27.27,0,0,1,0-.12c-.47-.19-1.33-.59-1.43-1S35.32,28,37.31,28.05Zm-4.58-4.81a8.51,8.51,0,0,1,1.84.42A2,2,0,0,1,32.43,25a2,2,0,0,1-1.9-1.56A6.38,6.38,0,0,1,32.73,23.24ZM27.66,15a.46.46,0,1,1,.81-.45,4.25,4.25,0,0,0,.91,1,4,4,0,0,0,1.22.67.46.46,0,0,1,.31.57.48.48,0,0,1-.45.33.3.3,0,0,1-.13,0,4.91,4.91,0,0,1-1.53-.83A5.14,5.14,0,0,1,27.66,15ZM43.09,31.93a7.15,7.15,0,0,1,2.07.68.31.31,0,0,1,.12.42.32.32,0,0,1-.27.16.28.28,0,0,1-.15,0A6.72,6.72,0,0,0,43,32.54a8.17,8.17,0,0,0-1.78-.11,5,5,0,0,1-.38,1.07,3.84,3.84,0,0,1-3.14,2l-.45,0a3.89,3.89,0,0,1-3.09-1.38,3.53,3.53,0,0,1-.61-1.37,6.68,6.68,0,0,0-1.79.23,7.74,7.74,0,0,0-1.75.69.24.24,0,0,1-.16,0,.3.3,0,0,1-.26-.15.31.31,0,0,1,.1-.42,7.83,7.83,0,0,1,1.91-.77,7.43,7.43,0,0,1,1.77-.25,7.12,7.12,0,0,0-1.64-.38,7.58,7.58,0,0,0-1.88,0,.31.31,0,1,1-.11-.6,8.08,8.08,0,0,1,3.62.29,23.12,23.12,0,0,1,.29-5.15.47.47,0,0,1,.92.16c-.27,1.52-.72,5.75.32,7.07a3.07,3.07,0,0,0,2.72,1A3,3,0,0,0,40,33.08c1-1.95.32-6.56.31-6.61a.46.46,0,0,1,.39-.52.46.46,0,0,1,.53.38,23.11,23.11,0,0,1,.17,4.89,8.49,8.49,0,0,1,1.51-.37,7.26,7.26,0,0,1,2.18,0,.31.31,0,1,1-.12.6,6.73,6.73,0,0,0-2,0,10.32,10.32,0,0,0-1.42.34A9.34,9.34,0,0,1,43.09,31.93Zm4.07-17.1A4.89,4.89,0,0,1,46,16.13a5,5,0,0,1-1.52.84l-.13,0a.47.47,0,0,1-.14-.91,4,4,0,0,0,1.22-.67,4.31,4.31,0,0,0,.91-1A.47.47,0,0,1,47,14.2.47.47,0,0,1,47.16,14.83Z"/><text class="cls-3" transform="translate(41.76 60.68)">0.png</text><text class="cls-3" transform="translate(124.15 60.68)">suna-0.png</text><rect class="cls-1" x="113.44" width="74.05" height="48.71"/><path class="cls-2" d="M161.54,20.64a11.9,11.9,0,0,0,.84-4.45c0-2.06-.37-3.86-1-4.37a.67.67,0,0,0-.56-.18c-.34.06-.55.35-.85.74A5.09,5.09,0,0,1,158.25,14c-1.4.72-3.23,1.46-3.56,1.6a18.73,18.73,0,0,0-4.11-.32,20.9,20.9,0,0,0-2.72.23A13.69,13.69,0,0,1,143.43,14a9.47,9.47,0,0,1-1.51-1.54c-.45-.55-.72-.88-1.08-.94a.61.61,0,0,0-.5.12c-.65.51-1,2.9-1.13,4.38a9.31,9.31,0,0,0,.76,4.65l.06.08c-.05.11-.1.21-.14.32-1.87,4.91-3.47,11.38-.44,14.35,3.64,3.56,9.76,4.19,12.1,4.19a4.89,4.89,0,0,0,.58,0c2.35-.16,8.33-1.8,10.76-5.63C165.42,30,162.77,23.28,161.54,20.64ZM155.88,23a9.45,9.45,0,0,1,1.89.2,2.05,2.05,0,0,1-2,1.63,2,2,0,0,1-2.07-1.34A6.46,6.46,0,0,1,155.88,23ZM151,28.05c2,.06,1.84.82,1.78,1.36s-.91.84-1.37,1.05a.2.2,0,0,1,0,.11l.06,1.43.72,0h0a.31.31,0,0,1,0,.62l-2.12.07h0a.31.31,0,0,1-.31-.3.31.31,0,0,1,.3-.32l.78,0-.06-1.43a.5.5,0,0,1,0-.12c-.46-.19-1.32-.59-1.42-1S149.05,28,151,28.05Zm-4.58-4.81a8.51,8.51,0,0,1,1.84.42A2,2,0,0,1,146.16,25a2,2,0,0,1-1.9-1.56A6.38,6.38,0,0,1,146.46,23.24ZM141.39,15a.46.46,0,1,1,.81-.45,4,4,0,0,0,2.13,1.7.45.45,0,0,1,.3.57.46.46,0,0,1-.44.33.3.3,0,0,1-.13,0,4.91,4.91,0,0,1-1.53-.83A5.14,5.14,0,0,1,141.39,15Zm15.43,16.89a7.15,7.15,0,0,1,2.07.68A.31.31,0,0,1,159,33a.32.32,0,0,1-.27.16.28.28,0,0,1-.15,0,6.72,6.72,0,0,0-1.87-.61,8.17,8.17,0,0,0-1.78-.11,5,5,0,0,1-.38,1.07,3.85,3.85,0,0,1-3.14,2l-.45,0a3.89,3.89,0,0,1-3.09-1.38,3.53,3.53,0,0,1-.61-1.37,6.68,6.68,0,0,0-1.79.23,7.74,7.74,0,0,0-1.75.69.24.24,0,0,1-.16,0,.3.3,0,0,1-.26-.15.31.31,0,0,1,.1-.42,7.83,7.83,0,0,1,1.91-.77,7.43,7.43,0,0,1,1.77-.25,7.12,7.12,0,0,0-1.64-.38,7.58,7.58,0,0,0-1.88,0,.31.31,0,1,1-.11-.6,7.58,7.58,0,0,1,2,0,7.31,7.31,0,0,1,1.56.33,23.55,23.55,0,0,1,.3-5.15.47.47,0,0,1,.92.16c-.27,1.52-.72,5.75.31,7.07a3.1,3.1,0,0,0,2.73,1,3,3,0,0,0,2.41-1.48c1-1.95.32-6.56.31-6.61a.46.46,0,0,1,.39-.52.46.46,0,0,1,.53.38,22.69,22.69,0,0,1,.16,4.89,8.87,8.87,0,0,1,1.52-.37,7.26,7.26,0,0,1,2.18,0,.31.31,0,1,1-.12.6,6.79,6.79,0,0,0-2,0,10.48,10.48,0,0,0-1.41.34A9.34,9.34,0,0,1,156.82,31.93Zm4.07-17.1a4.89,4.89,0,0,1-1.15,1.3,5,5,0,0,1-1.52.84l-.14,0a.47.47,0,0,1-.44-.33.47.47,0,0,1,.31-.58,3.89,3.89,0,0,0,1.21-.67,4.23,4.23,0,0,0,.92-1,.47.47,0,0,1,.63-.18A.47.47,0,0,1,160.89,14.83Z"/></g></g></svg>