<svg xmlns="http://www.w3.org/2000/svg" viewBox="0 0 277.41 71.79"><defs><style>.cls-1{fill:#dce0e5;}.cls-2{fill:#9ca3af;}.cls-3{fill:#fff;}.cls-4{fill:#8dd6db;}.cls-5{fill:#c6f4f2;}.cls-6,.cls-7,.cls-9{fill:none;stroke-miterlimit:10;}.cls-6{stroke:#8dd6db;}.cls-7{stroke:#dce0e5;}.cls-8{fill:#3dd5d8;}.cls-9{stroke:#3dd5d8;}</style></defs><g id="レイヤー_2" data-name="レイヤー 2"><g id="レイヤー_2-2" data-name="レイヤー 2"><rect class="cls-1" width="277.41" height="71.79"/></g><g id="レイヤー_1-2" data-name="レイヤー 1"><polygon class="cls-2" points="111.94 26.12 111.94 30.72 122.8 30.72 122.8 35.53 134.27 28.41 122.8 21.02 122.8 26.12 111.94 26.12"/><rect class="cls-2" x="50.26" y="14.52" width="54.87" height="43.9"/><path class="cls-3" d="M87.08,35.52a11.26,11.26,0,0,0,1.43-1.44,6.46,6.46,0,0,0,.91-2.95L79.9,33.4s.91-5.44-3.63-6.35a5.89,5.89,0,0,0-5.43,2,7.33,7.33,0,0,0-1.08,2H66.84a4.84,4.84,0,0,0,1,2.26,3.91,3.91,0,0,0,1.22.73,13.28,13.28,0,0,0,.08,2.72c.9,6.8,9.25,8.05,14.13,6.57,6-1.81,6.8-8.31,6.8-8.31Zm-12.7-2.88A1.66,1.66,0,1,1,76,31,1.66,1.66,0,0,1,74.38,32.64Z"/><rect class="cls-4" x="143.86" y="10.9" width="42.63" height="34.1"/><rect class="cls-2" x="143.86" y="10.9" width="34.04" height="26.13"/><path class="cls-3" d="M168.47,23.22a8.72,8.72,0,0,0,1.11-1.11,5.1,5.1,0,0,0,.71-2.29l-7.4,1.76s.7-4.23-2.82-4.93a4.58,4.58,0,0,0-4.22,1.55,5.88,5.88,0,0,0-.84,1.53h-2.26a3.6,3.6,0,0,0,.8,1.75,2.93,2.93,0,0,0,.94.57,10.84,10.84,0,0,0,.06,2.11c.71,5.29,7.19,6.26,11,5.11,4.64-1.41,5.29-6.46,5.29-6.46ZM158.6,21a1.29,1.29,0,1,1,1.29-1.29A1.29,1.29,0,0,1,158.6,21Z"/><rect class="cls-5" x="192.12" y="27.74" width="42.63" height="34.1"/><rect class="cls-2" x="192.12" y="27.74" width="25.67" height="19.7"/><path class="cls-3" d="M210.3,38a6.45,6.45,0,0,0,.85-.84,3.8,3.8,0,0,0,.53-1.73l-5.58,1.33s.53-3.19-2.13-3.72a3.46,3.46,0,0,0-3.18,1.17,4.28,4.28,0,0,0-.63,1.16h-1.71a2.81,2.81,0,0,0,.6,1.32,2.37,2.37,0,0,0,.72.43,7.82,7.82,0,0,0,0,1.59c.53,4,5.42,4.72,8.28,3.85,3.5-1.06,4-4.87,4-4.87Zm-7.43-1.68a1,1,0,1,1,1-1A1,1,0,0,1,202.87,36.28Z"/><polygon class="cls-4" points="224.17 49.84 219.28 48.94 220.86 53.77 224.17 49.84"/><line class="cls-6" x1="232.34" y1="59.41" x2="221.07" y2="50.55"/><polygon class="cls-1" points="179.7 35.35 174.87 34.16 176.16 39.08 179.7 35.35"/><line class="cls-7" x1="184.23" y1="43.01" x2="175.9" y2="35.42"/></g><g id="レイヤー_4" data-name="レイヤー 4"><rect class="cls-3" x="37.63" y="6.37" width="24.69" height="19.12"/><polygon class="cls-8" points="56.84 17.98 51.91 17.31 53.72 22.07 56.84 17.98"/><line class="cls-9" x1="61.64" y1="24.88" x2="53.76" y2="18.84"/><path class="cls-8" d="M36,5V26.82H63.18V5ZM60.44,24.27H38.71V7.59H60.44Z"/></g></g></svg>