<svg xmlns="http://www.w3.org/2000/svg" viewBox="0 0 187.28 59.03"><defs><style>.cls-1{fill:#9ca3af;}.cls-2{fill:#fff;}.cls-3,.cls-4,.cls-5{fill:none;stroke:#9ca3af;stroke-miterlimit:10;}.cls-4{stroke-dasharray:2.02 2.02;}.cls-5{stroke-dasharray:1.93 1.93;}</style></defs><g id="レイヤー_2" data-name="レイヤー 2"><g id="レイヤー_1-2" data-name="レイヤー 1"><polygon class="cls-1" points="66.11 28.39 66.11 33 92.27 33 92.27 37.81 103.74 30.69 92.27 23.3 92.27 28.39 66.11 28.39"/><rect class="cls-1" x="113.44" width="55.56" height="44.72"/><path class="cls-2" d="M153.52,16.88a13.67,13.67,0,0,0,.94-5c0-2.3-.42-4.32-1.09-4.89a.77.77,0,0,0-.63-.2c-.38.07-.62.39-1,.83a5.65,5.65,0,0,1-2,1.83c-1.57.82-3.62,1.64-4,1.79a21.73,21.73,0,0,0-4.6-.35,22.08,22.08,0,0,0-3,.26c-1-.2-3.75-.81-5-1.72a11.34,11.34,0,0,1-1.69-1.72c-.51-.61-.81-1-1.21-1.06a.69.69,0,0,0-.56.14c-.73.57-1.16,3.24-1.26,4.9a10.39,10.39,0,0,0,.84,5.21l.07.09c-.05.12-.11.24-.15.36-2.1,5.49-3.89,12.74-.49,16.06,4.07,4,10.92,4.7,13.54,4.7l.65,0c2.63-.18,9.33-2,12.05-6.31C157.86,27.33,154.89,19.83,153.52,16.88Zm-6.34,2.61a10.24,10.24,0,0,1,2.11.23,2.28,2.28,0,0,1-2.2,1.82,2.2,2.2,0,0,1-2.32-1.49A7.42,7.42,0,0,1,147.18,19.49Zm-5.43,5.68c2.23.08,2.07.92,2,1.53-.06.45-1,.94-1.53,1.17a.27.27,0,0,1,0,.12l.07,1.61.8,0h0a.35.35,0,0,1,.35.34.36.36,0,0,1-.34.36l-2.37.07h0a.35.35,0,0,1-.35-.33.36.36,0,0,1,.34-.36l.88,0-.07-1.6a.59.59,0,0,1,0-.14c-.51-.21-1.48-.65-1.59-1.1C139.84,26.17,139.53,25.09,141.75,25.17Zm-5.12-5.39a10.05,10.05,0,0,1,2.06.47,2.28,2.28,0,0,1-2.39,1.56,2.21,2.21,0,0,1-2.13-1.76A7.23,7.23,0,0,1,136.63,19.78ZM131,10.61a.52.52,0,0,1,.2-.71.51.51,0,0,1,.7.2,4.25,4.25,0,0,0,1,1.15,4.4,4.4,0,0,0,1.36.75.52.52,0,0,1-.15,1l-.15,0a5.74,5.74,0,0,1-1.71-.94A5.39,5.39,0,0,1,131,10.61Zm17.27,18.91a8,8,0,0,1,2.32.76.35.35,0,0,1-.17.65.53.53,0,0,1-.17,0,7.41,7.41,0,0,0-2.09-.69,9.06,9.06,0,0,0-2-.12,5.13,5.13,0,0,1-.42,1.2,4.32,4.32,0,0,1-3.52,2.21,4.19,4.19,0,0,1-.5,0A4.38,4.38,0,0,1,138.21,32a4,4,0,0,1-.67-1.54,7.84,7.84,0,0,0-2,.26,8.5,8.5,0,0,0-1.95.78.31.31,0,0,1-.18.05.37.37,0,0,1-.3-.16.35.35,0,0,1,.12-.48,8.77,8.77,0,0,1,2.13-.86,8.52,8.52,0,0,1,2-.28,8.23,8.23,0,0,0-4-.38.35.35,0,0,1-.4-.28.34.34,0,0,1,.28-.4,8.91,8.91,0,0,1,4,.32,25.74,25.74,0,0,1,.33-5.76.52.52,0,1,1,1,.18c-.29,1.7-.8,6.44.36,7.92a3.46,3.46,0,0,0,3.06,1.12,3.32,3.32,0,0,0,2.69-1.65c1.11-2.19.36-7.35.35-7.4a.52.52,0,0,1,1-.16,25,25,0,0,1,.19,5.47,10.1,10.1,0,0,1,1.7-.41,8.44,8.44,0,0,1,2.44,0,.35.35,0,0,1,.27.41.33.33,0,0,1-.4.27,7.35,7.35,0,0,0-2.2,0,9.09,9.09,0,0,0-1.59.38A9.52,9.52,0,0,1,148.23,29.52Zm4.55-19.14a5.55,5.55,0,0,1-1.28,1.45,5.63,5.63,0,0,1-1.7.94l-.15,0a.52.52,0,0,1-.15-1,4.3,4.3,0,0,0,1.35-.75,4.25,4.25,0,0,0,1-1.15.52.52,0,0,1,.91.51Z"/><rect class="cls-1" y="0.01" width="72.52" height="58.02"/><path class="cls-2" d="M52.43,21.91a17.53,17.53,0,0,0,1.22-6.46c0-3-.54-5.61-1.41-6.36a1,1,0,0,0-.82-.25c-.49.08-.8.5-1.23,1.08a7.31,7.31,0,0,1-2.55,2.37c-2,1.06-4.69,2.13-5.17,2.32a27.91,27.91,0,0,0-6-.46,30,30,0,0,0-3.95.34c-1.27-.25-4.87-1.05-6.44-2.23A13.86,13.86,0,0,1,23.93,10c-.66-.79-1.06-1.27-1.57-1.37a.86.86,0,0,0-.72.18c-1,.74-1.51,4.2-1.65,6.36A13.44,13.44,0,0,0,21.09,22l.09.12c-.07.16-.14.31-.2.47-2.72,7.13-5,16.53-.64,20.84,5.29,5.17,14.18,6.09,17.57,6.09l.84,0c3.42-.24,12.11-2.63,15.64-8.18C58.07,35.47,54.22,25.75,52.43,21.91Zm-8.22,3.4a12.71,12.71,0,0,1,2.73.29A3,3,0,0,1,44.09,28a2.87,2.87,0,0,1-3-1.94A9.27,9.27,0,0,1,44.21,25.31Zm-7,7.36c2.88.1,2.68,1.19,2.58,2-.07.58-1.31,1.21-2,1.51a.29.29,0,0,1,0,.16l.09,2.09,1,0h0a.44.44,0,0,1,.44.43.44.44,0,0,1-.43.46l-3.08.1h0a.45.45,0,0,1,0-.89l1.14,0-.08-2.08a.34.34,0,0,1,0-.18c-.67-.27-1.92-.85-2.07-1.43C34.68,34,34.28,32.57,37.17,32.67Zm-6.65-7a13.21,13.21,0,0,1,2.67.61,3,3,0,0,1-3.1,2A2.87,2.87,0,0,1,27.32,26,9.39,9.39,0,0,1,30.52,25.68Zm-7.36-11.9a.67.67,0,1,1,1.17-.66,6,6,0,0,0,3.09,2.47.68.68,0,0,1,.45.84.68.68,0,0,1-.65.48l-.19,0a7.5,7.5,0,0,1-2.21-1.22A6.89,6.89,0,0,1,23.16,13.78ZM45.57,38.31a10.43,10.43,0,0,1,3,1,.45.45,0,0,1,.18.61.43.43,0,0,1-.39.23.54.54,0,0,1-.22,0,9.25,9.25,0,0,0-2.72-.89,10.62,10.62,0,0,0-2.59-.15,6.89,6.89,0,0,1-.54,1.55,5.61,5.61,0,0,1-4.56,2.87q-.33,0-.66,0a5.65,5.65,0,0,1-4.49-2,5.18,5.18,0,0,1-.88-2,9.67,9.67,0,0,0-2.6.34,10.31,10.31,0,0,0-2.54,1,.46.46,0,0,1-.23.06.46.46,0,0,1-.39-.21.45.45,0,0,1,.15-.62A11.58,11.58,0,0,1,28.86,39a10.7,10.7,0,0,1,2.58-.37,10.08,10.08,0,0,0-2.39-.54,11.07,11.07,0,0,0-2.73,0,.45.45,0,0,1-.52-.36.44.44,0,0,1,.36-.52,11.49,11.49,0,0,1,3-.06,11.89,11.89,0,0,1,2.27.48,32.9,32.9,0,0,1,.44-7.47.67.67,0,1,1,1.32.23c-.38,2.21-1,8.35.47,10.27a4.46,4.46,0,0,0,4,1.46A4.26,4.26,0,0,0,41.09,40c1.45-2.85.47-9.54.46-9.61a.66.66,0,0,1,.56-.76.68.68,0,0,1,.77.56,32.86,32.86,0,0,1,.24,7.1,12.6,12.6,0,0,1,2.21-.53,10.38,10.38,0,0,1,3.15,0,.45.45,0,0,1-.16.88,9.74,9.74,0,0,0-2.86,0,11.46,11.46,0,0,0-2.05.49A12.83,12.83,0,0,1,45.57,38.31Zm5.9-24.83a7.07,7.07,0,0,1-1.65,1.89,7.32,7.32,0,0,1-2.22,1.21.63.63,0,0,1-.19,0,.67.67,0,0,1-.2-1.32,5.85,5.85,0,0,0,1.77-1,6.15,6.15,0,0,0,1.32-1.5.67.67,0,0,1,.91-.26A.66.66,0,0,1,51.47,13.48Z"/><polyline class="cls-3" points="186.78 57.53 186.78 58.53 185.78 58.53"/><line class="cls-4" x1="183.75" y1="58.53" x2="115.95" y2="58.53"/><polyline class="cls-3" points="114.94 58.53 113.94 58.53 113.94 57.53"/><line class="cls-5" x1="113.94" y1="55.6" x2="113.94" y2="2.48"/><polyline class="cls-3" points="113.94 1.51 113.94 0.51 114.94 0.51"/><line class="cls-4" x1="116.97" y1="0.51" x2="184.77" y2="0.51"/><polyline class="cls-3" points="185.78 0.51 186.78 0.51 186.78 1.51"/><line class="cls-5" x1="186.78" y1="3.45" x2="186.78" y2="56.57"/></g></g></svg>