<svg xmlns="http://www.w3.org/2000/svg" viewBox="0 0 262.04 73.82"><defs><style>.cls-1{fill:#9ca3af;}.cls-2{fill:#fff;}.cls-3{fill:#3dd5d8;}.cls-4,.cls-7,.cls-9{fill:none;stroke-miterlimit:10;}.cls-4{stroke:#3dd5d8;}.cls-5{fill:#8dd6db;}.cls-6{fill:#c6f4f2;}.cls-7{stroke:#8dd6db;}.cls-8{fill:#dce0e5;}.cls-9{stroke:#dce0e5;}</style></defs><g id="レイヤー_2" data-name="レイヤー 2"><g id="レイヤー_2-2" data-name="レイヤー 2"><rect class="cls-1" width="262.04" height="73.82" rx="17.14"/><rect class="cls-2" x="4.66" y="4.97" width="252.72" height="63.89" rx="13.03"/></g><g id="レイヤー_1-2" data-name="レイヤー 1"><polygon class="cls-3" points="241.51 22.86 236.58 22.19 238.39 26.94 241.51 22.86"/><line class="cls-4" x1="246.31" y1="29.75" x2="238.43" y2="23.72"/><polygon class="cls-1" points="83.34 26.56 83.34 31.17 94.2 31.17 94.2 35.98 105.67 28.86 94.2 21.46 94.2 26.56 83.34 26.56"/><rect class="cls-1" x="20.67" y="14.96" width="54.87" height="43.9"/><path class="cls-2" d="M57.48,36a11.76,11.76,0,0,0,1.44-1.44,6.51,6.51,0,0,0,.9-2.94L50.3,33.84s.91-5.44-3.63-6.34a5.9,5.9,0,0,0-5.43,2,7.49,7.49,0,0,0-1.08,2H37.24a4.75,4.75,0,0,0,1,2.26,3.8,3.8,0,0,0,1.21.74,13.2,13.2,0,0,0,.08,2.71c.9,6.8,9.26,8.06,14.13,6.58,6-1.82,6.8-8.32,6.8-8.32Zm-12.7-2.87a1.67,1.67,0,1,1,1.67-1.66A1.66,1.66,0,0,1,44.78,33.09Z"/><path class="cls-3" d="M220.64,9.92V31.69h27.21V9.92Zm24.47,19.23H223.38V12.47h21.73Z"/><rect class="cls-5" x="115.26" y="11.34" width="42.63" height="34.1"/><rect class="cls-1" x="115.26" y="11.34" width="34.04" height="26.13"/><path class="cls-2" d="M139.87,23.67A9.13,9.13,0,0,0,141,22.55a5,5,0,0,0,.71-2.29L134.29,22s.71-4.23-2.82-4.93a4.6,4.6,0,0,0-4.22,1.55,6.12,6.12,0,0,0-.84,1.54h-2.26a3.73,3.73,0,0,0,.8,1.76,2.93,2.93,0,0,0,.94.57,10.86,10.86,0,0,0,.06,2.11c.71,5.28,7.2,6.26,11,5.1,4.64-1.4,5.29-6.45,5.29-6.45ZM130,21.44a1.3,1.3,0,1,1,1.3-1.3A1.3,1.3,0,0,1,130,21.44Z"/><rect class="cls-6" x="163.52" y="28.19" width="42.63" height="34.1"/><rect class="cls-1" x="163.52" y="28.19" width="27.98" height="21.47"/><path class="cls-2" d="M183.34,39.32a7.56,7.56,0,0,0,.92-.91,4.19,4.19,0,0,0,.58-1.88L178.76,38s.58-3.47-2.32-4A3.76,3.76,0,0,0,173,35.19a5,5,0,0,0-.69,1.27h-1.86a3,3,0,0,0,.66,1.44,2.29,2.29,0,0,0,.78.47,7.94,7.94,0,0,0,0,1.74c.57,4.34,5.91,5.14,9,4.2,3.81-1.16,4.34-5.31,4.34-5.31Zm-8.1-1.83a1.06,1.06,0,1,1,1.06-1.06A1.06,1.06,0,0,1,175.24,37.49Z"/><polygon class="cls-5" points="197.79 51.62 192.9 50.71 194.48 55.55 197.79 51.62"/><line class="cls-7" x1="204.94" y1="60.86" x2="194.68" y2="52.32"/><polygon class="cls-8" points="151.1 35.8 146.27 34.6 147.56 39.52 151.1 35.8"/><line class="cls-9" x1="156.83" y1="44.34" x2="147.3" y2="35.86"/></g></g></svg>