<svg xmlns="http://www.w3.org/2000/svg" viewBox="0 0 187.49 58.02"><defs><style>.cls-1{fill:#9ca3af;}.cls-2{fill:#fff;}</style></defs><g id="レイヤー_2" data-name="レイヤー 2"><g id="レイヤー_1-2" data-name="レイヤー 1"><polygon class="cls-1" points="66.11 28.38 66.11 32.98 92.27 32.98 92.27 37.8 103.74 30.67 92.27 23.28 92.27 28.38 66.11 28.38"/><rect class="cls-1" width="72.52" height="58.02"/><path class="cls-2" d="M52.43,21.9a17.61,17.61,0,0,0,1.22-6.47c0-3-.54-5.61-1.41-6.35a1,1,0,0,0-.82-.25c-.49.08-.8.5-1.23,1.07a7.22,7.22,0,0,1-2.55,2.37c-2,1.06-4.69,2.14-5.17,2.33a27.91,27.91,0,0,0-6-.46,28.36,28.36,0,0,0-3.95.34c-1.27-.26-4.87-1.05-6.44-2.23A13.5,13.5,0,0,1,23.93,10c-.66-.79-1.06-1.27-1.57-1.37a.87.87,0,0,0-.72.19c-1,.73-1.51,4.2-1.65,6.35a13.53,13.53,0,0,0,1.1,6.76l.09.12c-.07.15-.14.3-.2.46-2.72,7.13-5,16.54-.64,20.85,5.29,5.17,14.18,6.09,17.57,6.09q.51,0,.84,0c3.42-.23,12.11-2.62,15.64-8.18C58.07,35.46,54.22,25.73,52.43,21.9Zm-8.22,3.39a13.08,13.08,0,0,1,2.73.3A3,3,0,0,1,44.09,28a2.86,2.86,0,0,1-3-1.94A9.27,9.27,0,0,1,44.21,25.29Zm-7,7.37c2.88.1,2.68,1.19,2.58,2-.07.59-1.31,1.22-2,1.52a.29.29,0,0,1,0,.16l.09,2.09,1,0h0a.44.44,0,0,1,.44.44.45.45,0,0,1-.43.46l-3.08.1h0a.44.44,0,0,1-.44-.44.45.45,0,0,1,.43-.46l1.14,0-.08-2.08a.38.38,0,0,1,0-.18c-.67-.27-1.92-.85-2.07-1.43C34.68,34,34.28,32.56,37.17,32.66Zm-6.65-7a13.21,13.21,0,0,1,2.67.61,3,3,0,0,1-3.1,2A2.87,2.87,0,0,1,27.32,26,9.39,9.39,0,0,1,30.52,25.67ZM23.16,13.76a.67.67,0,0,1,1.17-.65,6.34,6.34,0,0,0,1.33,1.49,5.72,5.72,0,0,0,1.76,1,.67.67,0,0,1-.2,1.32l-.19,0a7.08,7.08,0,0,1-2.21-1.21A7,7,0,0,1,23.16,13.76ZM45.57,38.3a10.09,10.09,0,0,1,3,1,.44.44,0,0,1,.18.6.44.44,0,0,1-.39.24.43.43,0,0,1-.22-.06,10,10,0,0,0-2.72-.89A11.81,11.81,0,0,0,42.83,39a6.72,6.72,0,0,1-.54,1.55,5.59,5.59,0,0,1-4.56,2.87c-.22,0-.44,0-.66,0a5.65,5.65,0,0,1-4.49-2,5.16,5.16,0,0,1-.88-2,10.11,10.11,0,0,0-2.6.34,11.34,11.34,0,0,0-2.54,1,.39.39,0,0,1-.23.07.47.47,0,0,1-.39-.22.44.44,0,0,1,.15-.61A11.83,11.83,0,0,1,28.86,39a11.11,11.11,0,0,1,2.58-.36A10.5,10.5,0,0,0,29.05,38a10.74,10.74,0,0,0-2.73.05.45.45,0,0,1-.16-.89,12.38,12.38,0,0,1,3-.05,10.52,10.52,0,0,1,2.27.48,32.8,32.8,0,0,1,.44-7.47.66.66,0,0,1,.77-.55.67.67,0,0,1,.55.77c-.38,2.21-1,8.36.47,10.28a4.45,4.45,0,0,0,4,1.45A4.26,4.26,0,0,0,41.09,40c1.45-2.84.47-9.53.46-9.6a.67.67,0,0,1,.56-.77.68.68,0,0,1,.77.57,32.75,32.75,0,0,1,.24,7.09,13.58,13.58,0,0,1,2.21-.53,10.57,10.57,0,0,1,3.15,0,.44.44,0,0,1,.36.52.45.45,0,0,1-.52.36,9.52,9.52,0,0,0-2.86,0,11.33,11.33,0,0,0-2.05.5A11.85,11.85,0,0,1,45.57,38.3Zm5.9-24.84a7.15,7.15,0,0,1-3.87,3.1.63.63,0,0,1-.19,0,.68.68,0,0,1-.65-.48.67.67,0,0,1,.45-.83,6.32,6.32,0,0,0,1.77-1,6,6,0,0,0,1.32-1.49.66.66,0,0,1,.91-.26A.66.66,0,0,1,51.47,13.46Z"/><rect class="cls-1" x="113.44" width="74.05" height="58.02"/><path class="cls-2" d="M135.19,36.19A17.53,17.53,0,0,0,134,42.65c0,3,.55,5.61,1.41,6.36a1,1,0,0,0,.82.25c.49-.08.8-.5,1.23-1.08A7.31,7.31,0,0,1,140,45.81c2-1.06,4.69-2.13,5.17-2.32a27.91,27.91,0,0,0,6,.46,30.28,30.28,0,0,0,4-.34c1.26.25,4.86,1,6.43,2.23a13.86,13.86,0,0,1,2.19,2.23c.66.79,1.06,1.27,1.57,1.37a.86.86,0,0,0,.72-.18c1-.74,1.51-4.2,1.65-6.36a13.44,13.44,0,0,0-1.1-6.75l-.09-.12c.07-.16.14-.31.2-.47,2.72-7.13,5-16.53.64-20.84C162,9.55,153.1,8.63,149.71,8.63l-.84,0c-3.42.24-12.11,2.63-15.64,8.18C129.55,22.63,133.4,32.35,135.19,36.19Zm8.22-3.4a12.83,12.83,0,0,1-2.73-.29,3,3,0,0,1,2.85-2.37,2.87,2.87,0,0,1,3,1.94A9.27,9.27,0,0,1,143.41,32.79Zm7-7.36c-2.88-.1-2.68-1.19-2.58-2,.07-.58,1.31-1.22,2-1.51a.42.42,0,0,1,0-.16l-.09-2.09-1,0h0a.45.45,0,0,1,0-.89l3.08-.1h0a.45.45,0,0,1,0,.89l-1.14,0,.08,2.08a.36.36,0,0,1,0,.18c.67.27,1.93.85,2.07,1.43C152.94,24.14,153.34,25.53,150.45,25.43Zm6.66,7a13.2,13.2,0,0,1-2.68-.61,3,3,0,0,1,3.1-2,2.87,2.87,0,0,1,2.77,2.28A9.36,9.36,0,0,1,157.11,32.42Zm7.35,11.9a.67.67,0,1,1-1.17.66,6,6,0,0,0-3.09-2.47.67.67,0,0,1,.2-1.32l.19,0a7.61,7.61,0,0,1,2.21,1.21A7,7,0,0,1,164.46,44.32ZM142.05,19.79a10.57,10.57,0,0,1-3-1,.45.45,0,0,1-.18-.61.43.43,0,0,1,.39-.23.42.42,0,0,1,.22.05,9.25,9.25,0,0,0,2.72.89,11.19,11.19,0,0,0,2.59.15,6.72,6.72,0,0,1,.54-1.55,5.61,5.61,0,0,1,4.56-2.87l.66,0a5.69,5.69,0,0,1,4.5,2,5.25,5.25,0,0,1,.87,2,10.11,10.11,0,0,0,2.6-.34,10.31,10.31,0,0,0,2.54-1,.46.46,0,0,1,.23-.06.45.45,0,0,1,.39.21.45.45,0,0,1-.15.62,11.58,11.58,0,0,1-2.77,1.11,10.7,10.7,0,0,1-2.58.37,10.08,10.08,0,0,0,2.39.54,11.07,11.07,0,0,0,2.73,0,.45.45,0,0,1,.16.88,11.49,11.49,0,0,1-3,.06,11.08,11.08,0,0,1-2.27-.49,33.8,33.8,0,0,1-.43,7.48.67.67,0,0,1-1.33-.23c.38-2.21,1-8.35-.46-10.27A4.49,4.49,0,0,0,150,16a4.26,4.26,0,0,0-3.49,2.14c-1.45,2.85-.47,9.54-.46,9.61a.67.67,0,0,1-.56.76.68.68,0,0,1-.77-.56,33.63,33.63,0,0,1-.24-7.1,12.6,12.6,0,0,1-2.21.53,10.38,10.38,0,0,1-3.15,0,.45.45,0,1,1,.16-.88,9.74,9.74,0,0,0,2.86,0,11.46,11.46,0,0,0,2.05-.49A14,14,0,0,1,142.05,19.79Zm-5.9,24.83a7.07,7.07,0,0,1,1.65-1.89A7.32,7.32,0,0,1,140,41.52a.63.63,0,0,1,.19,0,.67.67,0,0,1,.2,1.32,5.74,5.74,0,0,0-1.76,1,6.07,6.07,0,0,0-1.33,1.5.67.67,0,1,1-1.17-.66Z"/></g></g></svg>