<svg xmlns="http://www.w3.org/2000/svg" viewBox="0 0 262.04 73.82"><defs><style>.cls-1{fill:#9ca3af;}.cls-2{fill:#fff;}.cls-3{fill:#dce0e5;}.cls-4{fill:#8dd6db;}.cls-5{fill:#c6f4f2;}.cls-6{fill:#3dd5d8;}</style></defs><g id="レイヤー_2" data-name="レイヤー 2"><g id="レイヤー_2-2" data-name="レイヤー 2"><rect class="cls-1" width="262.04" height="73.82" rx="17.14"/><rect class="cls-2" x="4.66" y="4.97" width="252.72" height="63.89" rx="13.03"/></g><g id="レイヤー_1-2" data-name="レイヤー 1"><rect class="cls-3" x="217.97" y="13.89" width="25.8" height="19.8"/><rect class="cls-4" x="121.56" y="12.17" width="34.1" height="42.63"/><rect class="cls-1" x="121.59" y="20.42" width="34.04" height="26.13" transform="translate(105.12 172.09) rotate(-90)"/><path class="cls-2" d="M137.87,26.2a8.9,8.9,0,0,0-1.12-1.12,5,5,0,0,0-2.29-.7l1.76,7.39s-4.22-.7-4.93,2.82a4.59,4.59,0,0,0,1.55,4.22,6.12,6.12,0,0,0,1.54.84v2.27a3.73,3.73,0,0,0,1.76-.8,3.08,3.08,0,0,0,.57-.95,10.13,10.13,0,0,0,2.11-.06c5.28-.7,6.26-7.19,5.11-11-1.41-4.64-6.46-5.28-6.46-5.28Zm-2.23,9.86a1.3,1.3,0,1,1-1.29-1.29A1.29,1.29,0,0,1,135.64,36.06Z"/><rect class="cls-5" x="162.61" y="27.79" width="42.63" height="34.1"/><rect class="cls-1" x="166.9" y="31.77" width="34.04" height="26.13" transform="translate(367.84 89.67) rotate(180)"/><path class="cls-2" d="M176.64,45.58a8.51,8.51,0,0,0-1.12,1.11,5.1,5.1,0,0,0-.71,2.29l7.4-1.76s-.7,4.23,2.82,4.93a4.57,4.57,0,0,0,4.22-1.55,5.88,5.88,0,0,0,.84-1.53h2.27a3.71,3.71,0,0,0-.8-1.75,3.08,3.08,0,0,0-.95-.57,10.11,10.11,0,0,0-.06-2.11c-.7-5.29-7.19-6.26-11-5.11-4.64,1.41-5.28,6.46-5.28,6.46Zm9.86,2.23a1.29,1.29,0,1,1-1.29,1.29A1.29,1.29,0,0,1,186.5,47.81Z"/><polygon class="cls-1" points="83.34 26.56 83.34 31.17 94.2 31.17 94.2 35.98 105.67 28.86 94.2 21.46 94.2 26.56 83.34 26.56"/><rect class="cls-1" x="20.67" y="14.96" width="54.87" height="43.9"/><path class="cls-2" d="M57.48,36a11.76,11.76,0,0,0,1.44-1.44,6.51,6.51,0,0,0,.9-2.94L50.3,33.84s.91-5.44-3.63-6.34a5.9,5.9,0,0,0-5.43,2,7.49,7.49,0,0,0-1.08,2H37.24a4.75,4.75,0,0,0,1,2.26,3.8,3.8,0,0,0,1.21.74,13.2,13.2,0,0,0,.08,2.71c.9,6.8,9.26,8.06,14.13,6.58,6-1.82,6.8-8.32,6.8-8.32Zm-12.7-2.87a1.67,1.67,0,1,1,1.67-1.66A1.66,1.66,0,0,1,44.78,33.09Z"/><path class="cls-6" d="M250.07,31.92a8.32,8.32,0,0,0,.08-1.12,9.53,9.53,0,1,0-9.53,9.53,9.64,9.64,0,0,0,2.65-.38l-1.58-2.89A6.35,6.35,0,1,1,247,30.8c0,.12,0,.24,0,.36l-1.77-.44,1.89,6.68,5.07-5Z"/></g></g></svg>