<svg xmlns="http://www.w3.org/2000/svg" viewBox="0 0 262.04 75.82"><defs><style>.cls-1{fill:#fff;}.cls-2{fill:#f5f6f7;}.cls-3{fill:#dce0e5;}.cls-4{fill:#3dd5d8;}.cls-5{fill:#8dd6db;}.cls-6{fill:#c6f4f2;}.cls-7{fill:#9ca3af;}</style></defs><g id="レイヤー_2" data-name="レイヤー 2"><g id="レイヤー_2-2" data-name="レイヤー 2"><rect class="cls-1" width="262.04" height="73.82" rx="17.14"/><path class="cls-2" d="M246.52,71.61H212.83V2.44h33.69c7.1,0,12.86,6.32,12.86,14.11v41C259.38,65.29,253.62,71.61,246.52,71.61Z"/><path class="cls-3" d="M244.9,0H17.14A17.14,17.14,0,0,0,0,17.14V56.68A17.14,17.14,0,0,0,17.14,73.82H244.9A17.14,17.14,0,0,0,262,56.68V17.14A17.14,17.14,0,0,0,244.9,0Zm12.48,55.82a13,13,0,0,1-13,13H17.69a13,13,0,0,1-13-13V18a13,13,0,0,1,13-13H244.35a13,13,0,0,1,13,13Z"/><rect class="cls-1" y="2" width="262.04" height="73.82" rx="17.14"/><path class="cls-2" d="M246.52,73.6H212.83V4.43h33.69c7.1,0,12.86,6.32,12.86,14.11v41C259.38,67.29,253.62,73.6,246.52,73.6Z"/><path class="cls-3" d="M244.9,2H17.14A17.14,17.14,0,0,0,0,19.14V58.68A17.14,17.14,0,0,0,17.14,75.82H244.9A17.14,17.14,0,0,0,262,58.68V19.14A17.14,17.14,0,0,0,244.9,2Zm12.48,55.82a13,13,0,0,1-13,13H17.69a13,13,0,0,1-13-13V20a13,13,0,0,1,13-13H244.35a13,13,0,0,1,13,13Z"/></g><g id="レイヤー_1-2" data-name="レイヤー 1"><rect class="cls-4" x="223.51" y="14.88" width="25.8" height="19.8"/><rect class="cls-5" x="119.37" y="17.45" width="37.58" height="28.84"/><rect class="cls-6" x="166.58" y="32.48" width="37.58" height="28.84"/><rect class="cls-7" x="114.23" y="12.67" width="37.58" height="28.84"/><polygon class="cls-3" points="83.34 26.12 83.34 30.72 94.2 30.72 94.2 35.53 105.67 28.41 94.2 21.02 94.2 26.12 83.34 26.12"/><rect class="cls-7" x="20.67" y="14.52" width="54.87" height="43.9"/><path class="cls-1" d="M57.48,35.52a11.76,11.76,0,0,0,1.44-1.44,6.53,6.53,0,0,0,.9-2.95L50.3,33.4s.91-5.44-3.63-6.35a5.89,5.89,0,0,0-5.43,2,7.33,7.33,0,0,0-1.08,2H37.24a4.79,4.79,0,0,0,1,2.26,3.76,3.76,0,0,0,1.21.73,13.28,13.28,0,0,0,.08,2.72c.9,6.8,9.26,8.05,14.13,6.57,6-1.81,6.8-8.31,6.8-8.31Zm-12.7-2.88A1.66,1.66,0,1,1,46.45,31,1.66,1.66,0,0,1,44.78,32.64Z"/><path class="cls-1" d="M141.07,26.28a9.91,9.91,0,0,0,1.23-1.23,5.52,5.52,0,0,0,.78-2.53l-8.17,1.94s.78-4.66-3.11-5.44a5.05,5.05,0,0,0-4.66,1.71,6.43,6.43,0,0,0-.93,1.7h-2.5a4.07,4.07,0,0,0,.89,1.94,3.37,3.37,0,0,0,1,.63,11.56,11.56,0,0,0,.06,2.33c.78,5.83,7.94,6.91,12.13,5.64,5.12-1.56,5.83-7.13,5.83-7.13Zm-10.89-2.46a1.43,1.43,0,1,1,1.42-1.43A1.43,1.43,0,0,1,130.18,23.82Z"/><rect class="cls-7" x="161.86" y="28.18" width="37.58" height="28.84"/><rect class="cls-3" x="220.41" y="11.78" width="25.8" height="19.8"/><path class="cls-1" d="M188.7,41.79a10.71,10.71,0,0,0,1.23-1.23,5.65,5.65,0,0,0,.78-2.53L182.54,40s.78-4.66-3.11-5.44a5.05,5.05,0,0,0-4.66,1.71,6.43,6.43,0,0,0-.93,1.7h-2.5a4.12,4.12,0,0,0,.88,1.94,3.41,3.41,0,0,0,1.05.63,11.56,11.56,0,0,0,.06,2.33c.78,5.83,7.94,6.91,12.12,5.64,5.13-1.56,5.84-7.13,5.84-7.13Zm-10.89-2.46a1.43,1.43,0,1,1,1.42-1.43A1.43,1.43,0,0,1,177.81,39.33Z"/></g></g></svg>