<svg xmlns="http://www.w3.org/2000/svg" viewBox="0 0 262.04 73.82"><defs><style>.cls-1{fill:#9ca3af;}.cls-2{fill:#fff;}.cls-3{fill:#3dd5d8;}.cls-4{fill:#8dd6db;}.cls-5{fill:#c6f4f2;}.cls-6{fill:#dce0e5;}</style></defs><g id="レイヤー_2" data-name="レイヤー 2"><g id="レイヤー_2-2" data-name="レイヤー 2"><rect class="cls-1" width="262.04" height="73.82" rx="17.14"/><rect class="cls-2" x="4.66" y="4.97" width="252.72" height="63.89" rx="13.03"/></g><g id="レイヤー_1-2" data-name="レイヤー 1"><rect class="cls-3" x="223.51" y="15.32" width="25.8" height="19.8"/><rect class="cls-4" x="119.37" y="17.89" width="37.58" height="28.84"/><rect class="cls-5" x="166.58" y="32.92" width="37.58" height="28.84"/><rect class="cls-1" x="114.23" y="13.12" width="37.58" height="28.84"/><polygon class="cls-1" points="83.34 26.56 83.34 31.17 94.2 31.17 94.2 35.98 105.67 28.86 94.2 21.46 94.2 26.56 83.34 26.56"/><rect class="cls-1" x="20.67" y="14.96" width="54.87" height="43.9"/><path class="cls-2" d="M57.48,36a11.76,11.76,0,0,0,1.44-1.44,6.51,6.51,0,0,0,.9-2.94L50.3,33.84s.91-5.44-3.63-6.34a5.9,5.9,0,0,0-5.43,2,7.49,7.49,0,0,0-1.08,2H37.24a4.75,4.75,0,0,0,1,2.26,3.8,3.8,0,0,0,1.21.74,13.2,13.2,0,0,0,.08,2.71c.9,6.8,9.26,8.06,14.13,6.58,6-1.82,6.8-8.32,6.8-8.32Zm-12.7-2.87a1.67,1.67,0,1,1,1.67-1.66A1.66,1.66,0,0,1,44.78,33.09Z"/><path class="cls-2" d="M141.07,26.72a9.91,9.91,0,0,0,1.23-1.23,5.52,5.52,0,0,0,.78-2.53l-8.17,1.95s.78-4.67-3.11-5.45a5.08,5.08,0,0,0-4.66,1.71,6.43,6.43,0,0,0-.93,1.7h-2.5a4.07,4.07,0,0,0,.89,1.94,3.19,3.19,0,0,0,1,.63,11.54,11.54,0,0,0,.06,2.33c.78,5.83,7.94,6.91,12.13,5.64,5.12-1.56,5.83-7.13,5.83-7.13Zm-10.89-2.46a1.43,1.43,0,1,1,1.42-1.43A1.43,1.43,0,0,1,130.18,24.26Z"/><rect class="cls-1" x="161.86" y="28.63" width="37.58" height="28.84"/><rect class="cls-6" x="220.41" y="12.22" width="25.8" height="19.8"/><path class="cls-2" d="M188.7,42.23A10.71,10.71,0,0,0,189.93,41a5.65,5.65,0,0,0,.78-2.53l-8.17,2s.78-4.67-3.11-5.45a5.08,5.08,0,0,0-4.66,1.71,6.43,6.43,0,0,0-.93,1.7h-2.5a4.12,4.12,0,0,0,.88,1.94,3.23,3.23,0,0,0,1.05.63,11.54,11.54,0,0,0,.06,2.33c.78,5.83,7.94,6.91,12.12,5.64,5.13-1.56,5.84-7.13,5.84-7.13Zm-10.89-2.46a1.43,1.43,0,1,1,1.42-1.43A1.43,1.43,0,0,1,177.81,39.77Z"/></g></g></svg>