<svg xmlns="http://www.w3.org/2000/svg" viewBox="0 0 187.49 58.02"><defs><style>.cls-1{fill:#d1d5db;}.cls-2{fill:#9ca3af;}.cls-3{fill:#fff;}</style></defs><g id="レイヤー_2" data-name="レイヤー 2"><g id="レイヤー_1-2" data-name="レイヤー 1"><rect class="cls-1" x="115.72" y="2.52" width="71.76" height="55.5"/><polygon class="cls-2" points="66.11 28.38 66.11 32.98 92.27 32.98 92.27 37.8 103.74 30.67 92.27 23.28 92.27 28.38 66.11 28.38"/><rect class="cls-2" width="72.52" height="58.02"/><path class="cls-3" d="M52.43,21.9a17.61,17.61,0,0,0,1.22-6.47c0-3-.54-5.61-1.41-6.35a1,1,0,0,0-.82-.25c-.49.08-.8.5-1.23,1.07a7.22,7.22,0,0,1-2.55,2.37c-2,1.06-4.69,2.14-5.17,2.33a27.91,27.91,0,0,0-6-.46,28.36,28.36,0,0,0-3.95.34c-1.27-.26-4.87-1.05-6.44-2.23A13.5,13.5,0,0,1,23.93,10c-.66-.79-1.06-1.27-1.57-1.37a.87.87,0,0,0-.72.19c-1,.73-1.51,4.2-1.65,6.35a13.53,13.53,0,0,0,1.1,6.76l.09.12c-.07.15-.14.3-.2.46-2.72,7.13-5,16.54-.64,20.85,5.29,5.17,14.18,6.09,17.57,6.09q.51,0,.84,0c3.42-.23,12.11-2.62,15.64-8.18C58.07,35.46,54.22,25.73,52.43,21.9Zm-8.22,3.39a13.08,13.08,0,0,1,2.73.3A3,3,0,0,1,44.09,28a2.86,2.86,0,0,1-3-1.94A9.27,9.27,0,0,1,44.21,25.29Zm-7,7.37c2.88.1,2.68,1.19,2.58,2-.07.59-1.31,1.22-2,1.52a.29.29,0,0,1,0,.16l.09,2.09,1,0h0a.44.44,0,0,1,.44.44.45.45,0,0,1-.43.46l-3.08.1h0a.44.44,0,0,1-.44-.44.45.45,0,0,1,.43-.46l1.14,0-.08-2.08a.38.38,0,0,1,0-.18c-.67-.27-1.92-.85-2.07-1.43C34.68,34,34.28,32.56,37.17,32.66Zm-6.65-7a13.21,13.21,0,0,1,2.67.61,3,3,0,0,1-3.1,2A2.87,2.87,0,0,1,27.32,26,9.39,9.39,0,0,1,30.52,25.67ZM23.16,13.76a.67.67,0,0,1,1.17-.65,6.34,6.34,0,0,0,1.33,1.49,5.72,5.72,0,0,0,1.76,1,.67.67,0,0,1-.2,1.32l-.19,0a7.08,7.08,0,0,1-2.21-1.21A7,7,0,0,1,23.16,13.76ZM45.57,38.3a10.09,10.09,0,0,1,3,1,.44.44,0,0,1,.18.6.44.44,0,0,1-.39.24.43.43,0,0,1-.22-.06,10,10,0,0,0-2.72-.89A11.81,11.81,0,0,0,42.83,39a6.72,6.72,0,0,1-.54,1.55,5.59,5.59,0,0,1-4.56,2.87c-.22,0-.44,0-.66,0a5.65,5.65,0,0,1-4.49-2,5.16,5.16,0,0,1-.88-2,10.11,10.11,0,0,0-2.6.34,11.34,11.34,0,0,0-2.54,1,.39.39,0,0,1-.23.07.47.47,0,0,1-.39-.22.44.44,0,0,1,.15-.61A11.83,11.83,0,0,1,28.86,39a11.11,11.11,0,0,1,2.58-.36A10.5,10.5,0,0,0,29.05,38a10.74,10.74,0,0,0-2.73.05.45.45,0,0,1-.16-.89,12.38,12.38,0,0,1,3-.05,10.52,10.52,0,0,1,2.27.48,32.8,32.8,0,0,1,.44-7.47.66.66,0,0,1,.77-.55.67.67,0,0,1,.55.77c-.38,2.21-1,8.36.47,10.28a4.45,4.45,0,0,0,4,1.45A4.26,4.26,0,0,0,41.09,40c1.45-2.84.47-9.53.46-9.6a.67.67,0,0,1,.56-.77.68.68,0,0,1,.77.57,32.75,32.75,0,0,1,.24,7.09,13.58,13.58,0,0,1,2.21-.53,10.57,10.57,0,0,1,3.15,0,.44.44,0,0,1,.36.52.45.45,0,0,1-.52.36,9.52,9.52,0,0,0-2.86,0,11.33,11.33,0,0,0-2.05.5A11.85,11.85,0,0,1,45.57,38.3Zm5.9-24.84a7.15,7.15,0,0,1-3.87,3.1.63.63,0,0,1-.19,0,.68.68,0,0,1-.65-.48.67.67,0,0,1,.45-.83,6.32,6.32,0,0,0,1.77-1,6,6,0,0,0,1.32-1.49.66.66,0,0,1,.91-.26A.66.66,0,0,1,51.47,13.46Z"/><rect class="cls-2" x="113.44" width="69.05" height="53.68"/><path class="cls-3" d="M163.55,21.09a16.78,16.78,0,0,0,1.17-6.23c0-2.88-.52-5.4-1.36-6.12a.92.92,0,0,0-.78-.24c-.47.08-.77.48-1.19,1a7,7,0,0,1-2.45,2.28c-1.95,1-4.51,2-5,2.24a26.51,26.51,0,0,0-5.74-.45,29.87,29.87,0,0,0-3.81.33c-1.22-.24-4.69-1-6.19-2.15a12.88,12.88,0,0,1-2.11-2.15c-.64-.76-1-1.22-1.51-1.32a.9.9,0,0,0-.7.18c-.92.71-1.45,4.05-1.59,6.12a13,13,0,0,0,1.06,6.5,1.25,1.25,0,0,0,.09.12,3.57,3.57,0,0,0-.19.45c-2.63,6.86-4.86,15.92-.62,20.07,5.09,5,13.66,5.86,16.92,5.86.33,0,.6,0,.81,0,3.3-.23,11.66-2.53,15.06-7.88C169,34.14,165.27,24.78,163.55,21.09Zm-7.91,3.26a12.63,12.63,0,0,1,2.63.29,2.87,2.87,0,0,1-2.75,2.28,2.76,2.76,0,0,1-2.9-1.87A9.22,9.22,0,0,1,155.64,24.35Zm-6.79,7.1c2.78.09,2.59,1.14,2.49,1.91-.07.56-1.26,1.17-1.9,1.46a.83.83,0,0,1,0,.15l.08,2,1,0h0a.43.43,0,0,1,.43.42.42.42,0,0,1-.42.44l-3,.1h0a.44.44,0,0,1-.43-.42.42.42,0,0,1,.42-.44l1.1,0-.09-2a.57.57,0,0,1,0-.18c-.64-.26-1.85-.82-2-1.37C146.46,32.69,146.08,31.35,148.85,31.45Zm-6.4-6.73a12.43,12.43,0,0,1,2.58.59,2.86,2.86,0,0,1-3,1.94,2.78,2.78,0,0,1-2.67-2.2A9,9,0,0,1,142.45,24.72Zm-7.09-11.47a.65.65,0,0,1,.25-.88.66.66,0,0,1,.89.25,5.33,5.33,0,0,0,1.27,1.44,6,6,0,0,0,1.7.94.65.65,0,0,1,.43.81.66.66,0,0,1-.62.46l-.19,0A7.36,7.36,0,0,1,137,15.07,7,7,0,0,1,135.36,13.25ZM157,36.88a9.87,9.87,0,0,1,2.89.95.43.43,0,0,1-.21.81.54.54,0,0,1-.21,0,9.23,9.23,0,0,0-2.61-.86,10.81,10.81,0,0,0-2.5-.14,6.55,6.55,0,0,1-.53,1.49,5.37,5.37,0,0,1-4.39,2.76l-.63,0A5.47,5.47,0,0,1,144.43,40a5,5,0,0,1-.84-1.93,9.77,9.77,0,0,0-2.51.33,10.4,10.4,0,0,0-2.44,1,.46.46,0,0,1-.22.06.42.42,0,0,1-.37-.21.43.43,0,0,1,.14-.59,11.74,11.74,0,0,1,2.67-1.07,10.7,10.7,0,0,1,2.48-.35,9.46,9.46,0,0,0-2.3-.53,10,10,0,0,0-2.63,0,.44.44,0,0,1-.5-.35.42.42,0,0,1,.34-.5,11.27,11.27,0,0,1,2.88-.06,9.89,9.89,0,0,1,2.18.47,32.11,32.11,0,0,1,.42-7.2.65.65,0,1,1,1.28.22c-.37,2.12-1,8,.44,9.89a4.3,4.3,0,0,0,3.82,1.4,4.07,4.07,0,0,0,3.36-2.06c1.4-2.74.45-9.18.44-9.25a.65.65,0,0,1,1.28-.19,31.77,31.77,0,0,1,.24,6.83,13,13,0,0,1,2.12-.51,9.85,9.85,0,0,1,3,0,.43.43,0,0,1,.35.5.44.44,0,0,1-.51.34,9.4,9.4,0,0,0-2.75,0,11.15,11.15,0,0,0-2,.47A13.11,13.11,0,0,1,157,36.88ZM162.63,13a6.63,6.63,0,0,1-1.6,1.82A6.82,6.82,0,0,1,158.9,16a.58.58,0,0,1-.19,0,.66.66,0,0,1-.62-.46.65.65,0,0,1,.44-.81,5.63,5.63,0,0,0,1.69-.94,5.73,5.73,0,0,0,1.28-1.44.65.65,0,0,1,1.13.63Z"/></g></g></svg>