<svg xmlns="http://www.w3.org/2000/svg" viewBox="0 0 277.41 71.79"><defs><style>.cls-1{fill:#dce0e5;}.cls-2{fill:#9ca3af;}.cls-3{fill:#fff;}.cls-4{fill:#8dd6db;}.cls-5{fill:#c6f4f2;}.cls-6{fill:#3dd5d8;}</style></defs><g id="レイヤー_2" data-name="レイヤー 2"><g id="レイヤー_2-2" data-name="レイヤー 2"><rect class="cls-1" width="277.41" height="71.79"/></g><g id="レイヤー_1-2" data-name="レイヤー 1"><polygon class="cls-2" points="111.94 26.12 111.94 30.72 122.8 30.72 122.8 35.53 134.27 28.41 122.8 21.02 122.8 26.12 111.94 26.12"/><rect class="cls-2" x="50.26" y="14.52" width="54.87" height="43.9"/><path class="cls-3" d="M87.08,35.52a11.26,11.26,0,0,0,1.43-1.44,6.46,6.46,0,0,0,.91-2.95L79.9,33.4s.91-5.44-3.63-6.35a5.89,5.89,0,0,0-5.43,2,7.33,7.33,0,0,0-1.08,2H66.84a4.84,4.84,0,0,0,1,2.26,3.91,3.91,0,0,0,1.22.73,13.28,13.28,0,0,0,.08,2.72c.9,6.8,9.25,8.05,14.13,6.57,6-1.81,6.8-8.31,6.8-8.31Zm-12.7-2.88A1.66,1.66,0,1,1,76,31,1.66,1.66,0,0,1,74.38,32.64Z"/><rect class="cls-4" x="148.96" y="15.62" width="37.58" height="28.84"/><rect class="cls-2" x="143.82" y="10.85" width="37.58" height="28.84"/><path class="cls-3" d="M170.66,24.45a9.91,9.91,0,0,0,1.23-1.23,5.52,5.52,0,0,0,.78-2.53l-8.17,1.95s.78-4.67-3.11-5.45a5.08,5.08,0,0,0-4.66,1.71,6.72,6.72,0,0,0-.93,1.7h-2.5a4.07,4.07,0,0,0,.89,1.94,3.19,3.19,0,0,0,1,.63,11.54,11.54,0,0,0,.06,2.33c.78,5.83,8,6.91,12.13,5.64,5.12-1.56,5.83-7.13,5.83-7.13ZM159.77,22a1.43,1.43,0,1,1,1.42-1.43A1.43,1.43,0,0,1,159.77,22Z"/><rect class="cls-5" x="197.29" y="32.47" width="37.58" height="28.84"/><rect class="cls-2" x="192.15" y="27.69" width="37.58" height="28.84"/><path class="cls-3" d="M219,41.3a9.91,9.91,0,0,0,1.23-1.23,5.65,5.65,0,0,0,.78-2.53l-8.17,2s.78-4.67-3.11-5.45a5.08,5.08,0,0,0-4.66,1.71,6.43,6.43,0,0,0-.93,1.7h-2.5a4.07,4.07,0,0,0,.89,1.94,3.19,3.19,0,0,0,1,.63,11.56,11.56,0,0,0,.06,2.33c.78,5.83,7.94,6.91,12.13,5.64,5.12-1.56,5.83-7.13,5.83-7.13ZM208.1,38.84a1.43,1.43,0,1,1,1.42-1.43A1.43,1.43,0,0,1,208.1,38.84Z"/></g><g id="レイヤー_4" data-name="レイヤー 4"><rect class="cls-6" x="38.49" y="7.09" width="24.69" height="19.51"/><rect class="cls-3" x="35.97" y="5.04" width="24.69" height="19.12"/></g></g></svg>