<svg xmlns="http://www.w3.org/2000/svg" viewBox="0 0 187.49 58.02"><defs><style>.cls-1{fill:#9ca3af;}.cls-2{fill:#fff;}</style></defs><g id="レイヤー_2" data-name="レイヤー 2"><g id="レイヤー_1-2" data-name="レイヤー 1"><polygon class="cls-1" points="66.11 28.38 66.11 32.98 92.27 32.98 92.27 37.8 103.74 30.67 92.27 23.28 92.27 28.38 66.11 28.38"/><rect class="cls-1" width="72.52" height="58.02"/><path class="cls-2" d="M48.15,18.12a14.73,14.73,0,0,0,1-5.42c0-2.5-.46-4.69-1.18-5.31a.79.79,0,0,0-.68-.21c-.42.06-.68.41-1,.9a6.07,6.07,0,0,1-2.13,2c-1.7.89-3.92,1.79-4.33,1.95a23.17,23.17,0,0,0-5-.39,26.19,26.19,0,0,0-3.31.28c-1.06-.21-4.07-.87-5.38-1.86a11.52,11.52,0,0,1-1.84-1.87C23.74,7.51,23.41,7.11,23,7a.76.76,0,0,0-.61.16c-.8.61-1.26,3.51-1.37,5.31a11.17,11.17,0,0,0,.92,5.66.36.36,0,0,0,.07.1c-.06.13-.12.26-.17.39-2.28,6-4.22,13.84-.53,17.45,4.42,4.33,11.87,5.1,14.7,5.1l.71,0c2.86-.2,10.13-2.2,13.09-6.85C52.87,29.47,49.64,21.33,48.15,18.12ZM41.27,21a11.19,11.19,0,0,1,2.29.25,2.49,2.49,0,0,1-2.39,2,2.4,2.4,0,0,1-2.52-1.63A7.78,7.78,0,0,1,41.27,21Zm-5.9,6.16c2.42.09,2.25,1,2.17,1.67-.06.48-1.1,1-1.66,1.27a.28.28,0,0,1,0,.13L36,31.94l.87,0h0a.38.38,0,1,1,0,.75l-2.58.08h0a.37.37,0,0,1-.37-.36.37.37,0,0,1,.36-.39l1,0-.08-1.74a.33.33,0,0,1,0-.15c-.56-.23-1.61-.71-1.73-1.2C33.29,28.2,33,27,35.37,27.12ZM29.8,21.27a11.45,11.45,0,0,1,2.25.52,2.48,2.48,0,0,1-2.6,1.68,2.4,2.4,0,0,1-2.32-1.9A7.83,7.83,0,0,1,29.8,21.27Zm-6.16-10a.57.57,0,0,1,1-.55A4.85,4.85,0,0,0,25.74,12a5.05,5.05,0,0,0,1.47.81.57.57,0,0,1-.16,1.11.45.45,0,0,1-.16,0,6.11,6.11,0,0,1-1.86-1A6.34,6.34,0,0,1,23.64,11.31ZM42.41,31.85a8.73,8.73,0,0,1,2.51.82.38.38,0,0,1-.18.71.41.41,0,0,1-.18-.05,8.36,8.36,0,0,0-2.28-.74,9.45,9.45,0,0,0-2.16-.13,6.39,6.39,0,0,1-.46,1.3,4.67,4.67,0,0,1-3.82,2.4,5.07,5.07,0,0,1-.55,0,4.74,4.74,0,0,1-3.76-1.68,4.51,4.51,0,0,1-.74-1.67,8.39,8.39,0,0,0-2.17.28,9.05,9.05,0,0,0-2.13.85.45.45,0,0,1-.19.05.36.36,0,0,1-.32-.18.37.37,0,0,1,.12-.51,9.09,9.09,0,0,1,2.32-.93,9.19,9.19,0,0,1,2.16-.31,8.38,8.38,0,0,0-2-.46,9.34,9.34,0,0,0-2.29,0,.37.37,0,0,1-.43-.3.37.37,0,0,1,.3-.44,9.66,9.66,0,0,1,2.5-.05,9.32,9.32,0,0,1,1.9.41A27.61,27.61,0,0,1,30.92,25a.56.56,0,0,1,.65-.46.57.57,0,0,1,.46.65c-.32,1.85-.87,7,.39,8.6A3.74,3.74,0,0,0,35.73,35a3.59,3.59,0,0,0,2.93-1.79c1.21-2.38.39-8,.38-8A.56.56,0,1,1,40.15,25,27.34,27.34,0,0,1,40.36,31a11.1,11.1,0,0,1,1.84-.44,8.64,8.64,0,0,1,2.65,0,.38.38,0,0,1,.3.44.39.39,0,0,1-.44.3,8,8,0,0,0-2.4,0,10,10,0,0,0-1.71.41A10.52,10.52,0,0,1,42.41,31.85Zm4.94-20.79A6.09,6.09,0,0,1,46,12.64a6.25,6.25,0,0,1-1.85,1,.51.51,0,0,1-.17,0,.56.56,0,0,1-.53-.4.57.57,0,0,1,.37-.71,4.79,4.79,0,0,0,1.48-.81,5.16,5.16,0,0,0,1.11-1.25.56.56,0,0,1,.76-.22A.57.57,0,0,1,47.35,11.06Z"/><rect class="cls-1" x="113.44" width="74.05" height="58.02"/><path class="cls-2" d="M163.5,18.12a14.73,14.73,0,0,0,1-5.42c0-2.5-.45-4.69-1.18-5.31a.79.79,0,0,0-.68-.21c-.41.06-.67.41-1,.9a6.26,6.26,0,0,1-2.13,2c-1.7.89-3.93,1.79-4.33,1.95a23.32,23.32,0,0,0-5-.39,25.87,25.87,0,0,0-3.3.28c-1.06-.21-4.08-.87-5.39-1.86a11.43,11.43,0,0,1-1.83-1.87c-.56-.66-.89-1.06-1.32-1.15a.77.77,0,0,0-.61.16c-.79.61-1.26,3.51-1.37,5.31a11.17,11.17,0,0,0,.92,5.66.86.86,0,0,0,.07.1c-.05.13-.11.26-.17.39-2.27,6-4.22,13.84-.53,17.45,4.43,4.33,11.87,5.1,14.71,5.1l.7,0c2.87-.2,10.14-2.2,13.09-6.85C168.22,29.47,165,21.33,163.5,18.12ZM156.62,21a11.06,11.06,0,0,1,2.29.25,2.49,2.49,0,0,1-2.39,2A2.4,2.4,0,0,1,154,21.56,7.85,7.85,0,0,1,156.62,21Zm-5.89,6.16c2.41.09,2.24,1,2.16,1.67-.06.48-1.1,1-1.66,1.27a.5.5,0,0,1,0,.13l.07,1.75.87,0h0a.38.38,0,0,1,0,.75l-2.58.08h0a.37.37,0,0,1-.37-.36.37.37,0,0,1,.36-.39l1,0-.07-1.74a.24.24,0,0,1,0-.15c-.56-.23-1.61-.71-1.73-1.2C148.64,28.2,148.31,27,150.73,27.12Zm-5.57-5.85a11.46,11.46,0,0,1,2.24.52,2.48,2.48,0,0,1-2.6,1.68,2.38,2.38,0,0,1-2.31-1.9A7.78,7.78,0,0,1,145.16,21.27Zm-6.16-10a.56.56,0,1,1,1-.55A4.85,4.85,0,0,0,141.09,12a4.91,4.91,0,0,0,1.48.81.58.58,0,0,1,.37.71.57.57,0,0,1-.54.4.45.45,0,0,1-.16,0,6,6,0,0,1-1.85-1A6.09,6.09,0,0,1,139,11.31Zm18.76,20.54a8.73,8.73,0,0,1,2.51.82.37.37,0,0,1,.15.51.36.36,0,0,1-.33.2.41.41,0,0,1-.18-.05,8.21,8.21,0,0,0-2.27-.74,9.55,9.55,0,0,0-2.17-.13,5.84,5.84,0,0,1-.46,1.3,4.67,4.67,0,0,1-3.82,2.4,4.93,4.93,0,0,1-.55,0,4.75,4.75,0,0,1-3.76-1.68,4.34,4.34,0,0,1-.73-1.67,8.46,8.46,0,0,0-2.18.28,8.62,8.62,0,0,0-2.12.85.49.49,0,0,1-.2.05.37.37,0,0,1-.19-.69,8.72,8.72,0,0,1,2.31-.93,9.19,9.19,0,0,1,2.16-.31,8.25,8.25,0,0,0-2-.46,9.24,9.24,0,0,0-2.28,0,.38.38,0,0,1-.44-.3.38.38,0,0,1,.3-.44,9.66,9.66,0,0,1,2.5-.05,9.17,9.17,0,0,1,1.9.41,28.24,28.24,0,0,1,.36-6.26.56.56,0,1,1,1.11.19c-.32,1.85-.87,7,.39,8.6A3.75,3.75,0,0,0,151.09,35,3.59,3.59,0,0,0,154,33.25c1.21-2.38.39-8,.38-8a.56.56,0,0,1,.47-.64.55.55,0,0,1,.64.47,27.34,27.34,0,0,1,.21,5.94,11,11,0,0,1,1.85-.44,8.58,8.58,0,0,1,2.64,0,.38.38,0,0,1,.3.44.39.39,0,0,1-.44.3,8,8,0,0,0-2.39,0,10.17,10.17,0,0,0-1.72.41A10.52,10.52,0,0,1,157.76,31.85Zm4.94-20.79a6.09,6.09,0,0,1-1.39,1.58,6,6,0,0,1-1.85,1,.45.45,0,0,1-.16,0,.57.57,0,0,1-.54-.4.57.57,0,0,1,.37-.71,4.79,4.79,0,0,0,1.48-.81,4.91,4.91,0,0,0,1.11-1.25.56.56,0,1,1,1,.55Z"/><path class="cls-2" d="M165.84,52.78H164l-.75-2h-3.44l-.7,2h-1.84l3.34-8.59h1.83Zm-3.19-3.4-1.18-3.18-1.16,3.18Z"/><path class="cls-2" d="M166.77,44.19h3.43a9.33,9.33,0,0,1,1.52.09,2.1,2.1,0,0,1,.9.35,2.3,2.3,0,0,1,.66.72,1.89,1.89,0,0,1,.26,1,2,2,0,0,1-.32,1.11,2,2,0,0,1-.88.76,2.22,2.22,0,0,1,1.2.78,2.07,2.07,0,0,1,.43,1.29,2.59,2.59,0,0,1-.28,1.14,2.32,2.32,0,0,1-.74.89,2.47,2.47,0,0,1-1.16.4c-.29,0-1,.05-2.1.06h-2.92Zm1.73,1.43v2h1.14q1,0,1.26,0a1.17,1.17,0,0,0,.7-.31.9.9,0,0,0,.26-.67,1,1,0,0,0-.22-.65,1.07,1.07,0,0,0-.66-.3c-.17,0-.66,0-1.48,0Zm0,3.42v2.3h1.61a7,7,0,0,0,1.19-.06,1,1,0,0,0,.63-.34,1.07,1.07,0,0,0,.24-.73,1.09,1.09,0,0,0-.19-.66,1,1,0,0,0-.54-.39A6,6,0,0,0,169.9,49Z"/><path class="cls-2" d="M180.93,49.62l1.68.54a3.83,3.83,0,0,1-1.29,2.09,4,4,0,0,1-5.09-.49,4.44,4.44,0,0,1-1.1-3.2,4.68,4.68,0,0,1,1.1-3.33,3.81,3.81,0,0,1,2.92-1.18,3.58,3.58,0,0,1,2.56.93,3.29,3.29,0,0,1,.87,1.58l-1.71.41a1.79,1.79,0,0,0-1.81-1.44,2,2,0,0,0-1.55.68,3.35,3.35,0,0,0-.6,2.22,3.65,3.65,0,0,0,.59,2.33,1.9,1.9,0,0,0,1.52.69,1.75,1.75,0,0,0,1.19-.44A2.65,2.65,0,0,0,180.93,49.62Z"/></g></g></svg>