<svg xmlns="http://www.w3.org/2000/svg" viewBox="0 0 277.41 71.79"><defs><style>.cls-1{fill:#dce0e5;}.cls-2{fill:#9ca3af;}.cls-3{fill:#fff;}.cls-4,.cls-5{fill:#3dd5d8;}.cls-5{font-size:12.75px;font-family:Arial-BoldMT, Arial;font-weight:700;}</style></defs><g id="レイヤー_2" data-name="レイヤー 2"><g id="レイヤー_2-2" data-name="レイヤー 2"><rect class="cls-1" width="277.41" height="71.79"/></g><g id="レイヤー_1-2" data-name="レイヤー 1"><polygon class="cls-2" points="111.94 26.12 111.94 30.72 122.8 30.72 122.8 35.53 134.27 28.41 122.8 21.02 122.8 26.12 111.94 26.12"/><rect class="cls-2" x="50.26" y="14.52" width="54.87" height="43.9"/><path class="cls-3" d="M87.08,35.52a11.26,11.26,0,0,0,1.43-1.44,6.46,6.46,0,0,0,.91-2.95L79.9,33.4s.91-5.44-3.63-6.35a5.89,5.89,0,0,0-5.43,2,7.33,7.33,0,0,0-1.08,2H66.84a4.84,4.84,0,0,0,1,2.26,3.91,3.91,0,0,0,1.22.73,13.28,13.28,0,0,0,.08,2.72c.9,6.8,9.25,8.05,14.13,6.57,6-1.81,6.8-8.31,6.8-8.31Zm-12.7-2.88A1.66,1.66,0,1,1,76,31,1.66,1.66,0,0,1,74.38,32.64Z"/><rect class="cls-2" x="143.6" y="10.85" width="37.58" height="28.84"/><path class="cls-3" d="M170.44,24.45a10.71,10.71,0,0,0,1.23-1.23,5.65,5.65,0,0,0,.78-2.53l-8.17,1.95s.78-4.67-3.11-5.45a5.08,5.08,0,0,0-4.66,1.71,6.43,6.43,0,0,0-.93,1.7h-2.5a4.12,4.12,0,0,0,.88,1.94,3.23,3.23,0,0,0,1,.63,11.54,11.54,0,0,0,.06,2.33c.78,5.83,7.94,6.91,12.13,5.64C172.32,29.57,173,24,173,24ZM159.55,22A1.43,1.43,0,1,1,161,20.56,1.43,1.43,0,0,1,159.55,22Z"/><rect class="cls-2" x="191.93" y="27.69" width="37.58" height="28.84"/><path class="cls-3" d="M218.77,41.3A10.71,10.71,0,0,0,220,40.07a5.65,5.65,0,0,0,.78-2.53l-8.17,2s.78-4.67-3.11-5.45a5.08,5.08,0,0,0-4.66,1.71,6.43,6.43,0,0,0-.93,1.7h-2.5a4.12,4.12,0,0,0,.88,1.94,3.23,3.23,0,0,0,1.05.63,11.56,11.56,0,0,0,.06,2.33c.78,5.83,7.94,6.91,12.12,5.64,5.13-1.56,5.84-7.13,5.84-7.13Zm-10.9-2.46a1.43,1.43,0,1,1,1.43-1.43A1.43,1.43,0,0,1,207.87,38.84Z"/><path class="cls-3" d="M173.71,37.13h-1.16l-.45-1.19H170l-.43,1.19h-1.12l2-5.24h1.12Zm-2-2.07-.73-2-.7,2Z"/><path class="cls-3" d="M174.27,31.89h2.1a5.57,5.57,0,0,1,.93.05,1.29,1.29,0,0,1,.54.22,1.27,1.27,0,0,1,.4.43,1.2,1.2,0,0,1,.17.62,1.22,1.22,0,0,1-.2.67,1.21,1.21,0,0,1-.54.46,1.5,1.5,0,0,1,.74.48,1.26,1.26,0,0,1,.25.79,1.59,1.59,0,0,1-.16.7,1.51,1.51,0,0,1-.46.54,1.53,1.53,0,0,1-.71.24c-.17,0-.6,0-1.27,0h-1.79Zm1.06.87V34H176a6.32,6.32,0,0,0,.77,0,.71.71,0,0,0,.43-.18.58.58,0,0,0,.16-.41.59.59,0,0,0-.14-.4.6.6,0,0,0-.4-.18c-.1,0-.4,0-.9,0Zm0,2.09v1.4h1a3.69,3.69,0,0,0,.73,0,.62.62,0,0,0,.38-.2.74.74,0,0,0,0-.85.6.6,0,0,0-.33-.24,3.63,3.63,0,0,0-.94-.07Z"/><path class="cls-4" d="M212.37,46.13h-1.15l-.46-1.19h-2.09l-.44,1.19h-1.12l2-5.24h1.12Zm-2-2.07-.72-2-.71,2Z"/><path class="cls-4" d="M212.94,40.89H215a5.43,5.43,0,0,1,.93,0,1.33,1.33,0,0,1,.55.22,1.38,1.38,0,0,1,.4.43,1.19,1.19,0,0,1,.16.62,1.22,1.22,0,0,1-.2.67,1.16,1.16,0,0,1-.54.46,1.45,1.45,0,0,1,.74.48,1.27,1.27,0,0,1,.26.79,1.6,1.6,0,0,1-.17.7,1.48,1.48,0,0,1-.45.54,1.58,1.58,0,0,1-.71.24c-.18,0-.61,0-1.28,0h-1.78Zm1.05.87V43h.7a6.42,6.42,0,0,0,.77,0,.68.68,0,0,0,.42-.18.54.54,0,0,0,.16-.41.64.64,0,0,0-.13-.4.62.62,0,0,0-.4-.18c-.11,0-.41,0-.91,0Zm0,2.09v1.4h1a3.56,3.56,0,0,0,.73,0,.57.57,0,0,0,.38-.2.66.66,0,0,0,.15-.45.72.72,0,0,0-.11-.4.68.68,0,0,0-.33-.24,3.73,3.73,0,0,0-.94-.07Z"/></g><g id="レイヤー_4" data-name="レイヤー 4"><rect class="cls-3" x="36.96" y="6.71" width="24.69" height="19.12"/><path class="cls-4" d="M36,5V26.82H63.18V5ZM60.44,24.27H38.71V7.59H60.44Z"/><text class="cls-5" transform="translate(45.38 20.18)">A</text></g></g></svg>