<svg xmlns="http://www.w3.org/2000/svg" viewBox="0 0 262.04 73.82"><defs><style>.cls-1,.cls-3{fill:#9ca3af;}.cls-2{fill:#fff;}.cls-3,.cls-4{font-size:9.23px;font-family:Arial-BoldMT, Arial;font-weight:700;}.cls-4{fill:#3dd5d8;}.cls-5{fill:#8dd6db;}.cls-6{fill:#c6f4f2;}</style></defs><g id="レイヤー_2" data-name="レイヤー 2"><g id="レイヤー_2-2" data-name="レイヤー 2"><rect class="cls-1" width="262.04" height="73.82" rx="17.14"/><rect class="cls-2" x="4.66" y="4.97" width="252.72" height="63.89" rx="13.03"/></g><g id="レイヤー_1-2" data-name="レイヤー 1"><text class="cls-3" transform="translate(170.78 55.64)">0.png</text><text class="cls-3" transform="translate(218.84 24.48)">1.png</text><text class="cls-4" transform="translate(208.77 24.48)">A-</text><text class="cls-4" transform="translate(159.89 55.41)">A-</text><rect class="cls-5" x="152.24" y="12.26" width="42.63" height="34.1"/><rect class="cls-1" x="156.53" y="16.25" width="34.04" height="26.13"/><path class="cls-2" d="M180.84,28.57A8.72,8.72,0,0,0,182,27.46a5,5,0,0,0,.71-2.29l-7.4,1.76s.7-4.23-2.82-4.93a4.58,4.58,0,0,0-4.22,1.55,6,6,0,0,0-.84,1.53h-2.26a3.71,3.71,0,0,0,.8,1.75,2.93,2.93,0,0,0,.94.57,10.84,10.84,0,0,0,.06,2.11c.71,5.29,7.19,6.26,11,5.11,4.64-1.41,5.29-6.46,5.29-6.46ZM171,26.34a1.29,1.29,0,1,1,1.3-1.29A1.29,1.29,0,0,1,171,26.34Z"/><rect class="cls-6" x="200.5" y="28.66" width="42.63" height="34.1"/><rect class="cls-1" x="204.79" y="32.65" width="34.04" height="26.13"/><path class="cls-2" d="M229.1,45a10.14,10.14,0,0,0,1.12-1.11,5,5,0,0,0,.7-2.29l-7.4,1.76s.71-4.23-2.82-4.93a4.57,4.57,0,0,0-4.22,1.54,6.12,6.12,0,0,0-.84,1.54h-2.26a3.71,3.71,0,0,0,.8,1.75,2.86,2.86,0,0,0,.95.57,10.07,10.07,0,0,0,.05,2.11c.71,5.29,7.2,6.26,11,5.11,4.64-1.41,5.29-6.46,5.29-6.46Zm-9.86-2.23a1.29,1.29,0,1,1,1.29-1.29A1.3,1.3,0,0,1,219.24,42.74Z"/><text class="cls-3" transform="translate(37.1 55.64)">0.png</text><text class="cls-3" transform="translate(85.16 24.48)">1.png</text><rect class="cls-5" x="18.56" y="12.26" width="42.63" height="34.1"/><rect class="cls-1" x="22.85" y="16.25" width="34.04" height="26.13"/><path class="cls-2" d="M47.16,28.57a8.72,8.72,0,0,0,1.11-1.11A5.1,5.1,0,0,0,49,25.17l-7.4,1.76s.7-4.23-2.82-4.93a4.57,4.57,0,0,0-4.22,1.55,6,6,0,0,0-.84,1.53H31.44a3.6,3.6,0,0,0,.8,1.75,2.93,2.93,0,0,0,.94.57,10.84,10.84,0,0,0,.06,2.11c.71,5.29,7.19,6.26,11,5.11,4.64-1.41,5.29-6.46,5.29-6.46Zm-9.87-2.23a1.29,1.29,0,1,1,1.29-1.29A1.29,1.29,0,0,1,37.29,26.34Z"/><rect class="cls-6" x="66.82" y="28.66" width="42.63" height="34.1"/><rect class="cls-1" x="71.11" y="32.65" width="34.04" height="26.13"/><path class="cls-2" d="M95.42,45a9.54,9.54,0,0,0,1.11-1.11,5,5,0,0,0,.71-2.29l-7.4,1.76s.7-4.23-2.82-4.93a4.57,4.57,0,0,0-4.22,1.54A6.12,6.12,0,0,0,82,41.48H79.7a3.71,3.71,0,0,0,.8,1.75,2.93,2.93,0,0,0,.94.57,10.84,10.84,0,0,0,.06,2.11c.71,5.29,7.19,6.26,11,5.11,4.64-1.41,5.29-6.46,5.29-6.46Zm-9.87-2.23a1.29,1.29,0,1,1,1.3-1.29A1.29,1.29,0,0,1,85.55,42.74Z"/><polygon class="cls-1" points="120.53 28.63 120.53 33.23 131.4 33.23 131.4 38.04 142.87 30.92 131.4 23.53 131.4 28.63 120.53 28.63"/></g></g></svg>