<svg xmlns="http://www.w3.org/2000/svg" viewBox="0 0 262.04 73.82"><defs><style>.cls-1{fill:#fff;}.cls-2{fill:#f5f6f7;}.cls-3{fill:#dce0e5;}.cls-4{fill:#8dd6db;}.cls-5{fill:#9ca3af;}.cls-6{fill:#c6f4f2;}.cls-7{font-size:12.75px;font-family:Arial-BoldMT, Arial;font-weight:700;}.cls-7,.cls-8{fill:#3dd5d8;}</style></defs><g id="レイヤー_2" data-name="レイヤー 2"><g id="レイヤー_2-2" data-name="レイヤー 2"><rect class="cls-1" width="262.04" height="73.82" rx="17.14"/><path class="cls-2" d="M246.52,71.61H212.83V2.44h33.69c7.1,0,12.86,6.32,12.86,14.11v41C259.38,65.29,253.62,71.61,246.52,71.61Z"/><path class="cls-3" d="M244.9,0H17.14A17.14,17.14,0,0,0,0,17.14V56.68A17.14,17.14,0,0,0,17.14,73.82H244.9A17.14,17.14,0,0,0,262,56.68V17.14A17.14,17.14,0,0,0,244.9,0Zm12.48,55.82a13,13,0,0,1-13,13H17.69a13,13,0,0,1-13-13V18a13,13,0,0,1,13-13H244.35a13,13,0,0,1,13,13Z"/></g><g id="レイヤー_1-2" data-name="レイヤー 1"><rect class="cls-3" x="222.42" y="11.83" width="25.8" height="19.8"/><rect class="cls-4" x="116.03" y="13.97" width="44.45" height="35.56"/><rect class="cls-5" x="120.51" y="18.13" width="35.5" height="27.24"/><path class="cls-1" d="M145.86,31A9.2,9.2,0,0,0,147,29.81a5.23,5.23,0,0,0,.74-2.38L140,29.26s.74-4.41-2.94-5.14a4.79,4.79,0,0,0-4.4,1.61,6.48,6.48,0,0,0-.87,1.61h-2.36a3.79,3.79,0,0,0,.83,1.83,3.24,3.24,0,0,0,1,.6,10.32,10.32,0,0,0,.06,2.2c.73,5.51,7.5,6.52,11.45,5.32,4.84-1.47,5.51-6.73,5.51-6.73Zm-10.29-2.33a1.35,1.35,0,1,1,1.35-1.35A1.34,1.34,0,0,1,135.57,28.65Z"/><rect class="cls-6" x="166.04" y="29.5" width="44.45" height="35.56"/><rect class="cls-5" x="170.52" y="33.65" width="35.5" height="27.24"/><path class="cls-1" d="M195.87,46.51A10,10,0,0,0,197,45.34a5.26,5.26,0,0,0,.74-2.39l-7.72,1.84s.74-4.41-2.94-5.14a4.78,4.78,0,0,0-4.4,1.61,6.5,6.5,0,0,0-.88,1.61h-2.36a3.85,3.85,0,0,0,.84,1.83,3.24,3.24,0,0,0,1,.6,10.32,10.32,0,0,0,.06,2.2c.73,5.51,7.5,6.52,11.45,5.32,4.83-1.47,5.51-6.73,5.51-6.73Zm-10.29-2.33a1.35,1.35,0,1,1,1.35-1.35A1.35,1.35,0,0,1,185.58,44.18Z"/><text class="cls-7" transform="translate(230.71 26.06)">A</text><polygon class="cls-3" points="83.34 26.34 83.34 30.94 94.2 30.94 94.2 35.76 105.67 28.63 94.2 21.24 94.2 26.34 83.34 26.34"/><rect class="cls-5" x="20.67" y="14.74" width="54.87" height="43.9"/><path class="cls-1" d="M57.48,35.74a11.76,11.76,0,0,0,1.44-1.44,6.53,6.53,0,0,0,.9-2.95L50.3,33.62s.91-5.44-3.63-6.35a5.89,5.89,0,0,0-5.43,2,7.49,7.49,0,0,0-1.08,2H37.24a4.75,4.75,0,0,0,1,2.26,3.59,3.59,0,0,0,1.21.73A13.28,13.28,0,0,0,39.57,37c.9,6.8,9.26,8,14.13,6.57,6-1.81,6.8-8.31,6.8-8.31Zm-12.7-2.87a1.67,1.67,0,1,1,1.67-1.67A1.66,1.66,0,0,1,44.78,32.87Z"/><path class="cls-1" d="M148.68,43.12h-1.15l-.46-1.19H145l-.43,1.19h-1.12l2-5.24h1.12Zm-2-2.07L146,39.1l-.71,1.95Z"/><path class="cls-1" d="M149.24,37.88h2.1a6.93,6.93,0,0,1,.93,0,1.43,1.43,0,0,1,.54.22,1.34,1.34,0,0,1,.41.44,1.23,1.23,0,0,1,.16.61,1.24,1.24,0,0,1-.74,1.14,1.42,1.42,0,0,1,.74.47,1.28,1.28,0,0,1,.25.79,1.59,1.59,0,0,1-.16.7,1.42,1.42,0,0,1-.46.54,1.54,1.54,0,0,1-.71.25c-.17,0-.6,0-1.27,0h-1.79Zm1.06.87V40h1.46a.72.72,0,0,0,.43-.19.57.57,0,0,0,.16-.41.61.61,0,0,0-.14-.4.6.6,0,0,0-.4-.18c-.1,0-.4,0-.9,0Zm0,2.09v1.4h1a5.3,5.3,0,0,0,.73,0,.68.68,0,0,0,.38-.21.64.64,0,0,0,.15-.45.68.68,0,0,0-.12-.4.6.6,0,0,0-.33-.24,3.58,3.58,0,0,0-.93-.07Z"/><path class="cls-8" d="M190.18,51.76H189l-.45-1.19h-2.1l-.43,1.19h-1.13L187,46.52h1.12Zm-1.94-2.08-.73-1.94-.71,1.94Z"/><path class="cls-8" d="M190.75,46.52h2.1a5.36,5.36,0,0,1,.92,0,1.26,1.26,0,0,1,.55.21,1.31,1.31,0,0,1,.4.44,1.17,1.17,0,0,1,.16.62,1.21,1.21,0,0,1-.19.67,1.26,1.26,0,0,1-.54.46,1.36,1.36,0,0,1,.73.48,1.21,1.21,0,0,1,.26.79,1.41,1.41,0,0,1-.17.69,1.34,1.34,0,0,1-.45.54,1.44,1.44,0,0,1-.71.25c-.18,0-.6,0-1.28,0h-1.78Zm1.06.87V48.6h.69c.41,0,.67,0,.77,0a.74.74,0,0,0,.43-.18.58.58,0,0,0,.15-.41.57.57,0,0,0-.13-.4.6.6,0,0,0-.4-.18,8.44,8.44,0,0,0-.9,0Zm0,2.08v1.41h1a4.48,4.48,0,0,0,.72,0,.68.68,0,0,0,.39-.21.63.63,0,0,0,.15-.44.65.65,0,0,0-.12-.4.6.6,0,0,0-.33-.24,3.52,3.52,0,0,0-.94-.08Z"/></g></g></svg>