<svg xmlns="http://www.w3.org/2000/svg" viewBox="0 0 63.59 50.58"><defs><style>.cls-1{fill:#6b7280;}.cls-2{fill:#d1d5db;}</style></defs><g id="レイヤー_2" data-name="レイヤー 2"><g id="light"><path class="cls-1" d="M61.59,2V48.58H2V2H61.59m2-2H0V50.58H63.59V0Z"/><rect class="cls-2" x="14.45" y="3.01" width="34.24" height="4.99"/><path class="cls-2" d="M22.85,20.68h1.31l3.13,8.61H26l-.87-2.58H21.73l-.93,2.58H19.61Zm1.91,5.08L23.46,22l-1.39,3.8Z"/><path class="cls-2" d="M28.32,20.68H32a2.46,2.46,0,0,1,2.16.9,2,2,0,0,1,.38,1.23,1.93,1.93,0,0,1-.46,1.34,2.28,2.28,0,0,1-.69.5,3,3,0,0,1,1,.57A2.09,2.09,0,0,1,35,26.77a2.4,2.4,0,0,1-.53,1.51,3,3,0,0,1-2.49,1H28.32Zm3.28,3.64a2.58,2.58,0,0,0,1.16-.21A1.17,1.17,0,0,0,33.42,23a1.1,1.1,0,0,0-.7-1.13,3.08,3.08,0,0,0-1.16-.17h-2.1v2.67Zm.4,4a1.81,1.81,0,0,0,1.54-.62,1.51,1.51,0,0,0,.29-1A1.27,1.27,0,0,0,33,25.44a3.27,3.27,0,0,0-1.19-.18H29.46v3Z"/><path class="cls-2" d="M42.44,21.31a3.07,3.07,0,0,1,1,2H42.29A2.16,2.16,0,0,0,40,21.46a2.54,2.54,0,0,0-2,.89,4.16,4.16,0,0,0-.77,2.75,4.06,4.06,0,0,0,.69,2.45,2.42,2.42,0,0,0,2.07.94,2.17,2.17,0,0,0,1.93-1,3.77,3.77,0,0,0,.53-1.37h1.13a3.9,3.9,0,0,1-1,2.28,3.54,3.54,0,0,1-2.74,1.11,3.6,3.6,0,0,1-2.49-.91A4.78,4.78,0,0,1,36,24.9a4.81,4.81,0,0,1,1-3.13,3.63,3.63,0,0,1,3-1.32A3.45,3.45,0,0,1,42.44,21.31Z"/><path class="cls-2" d="M59.68,3.79v43H3.91v-43H59.68m2-2H1.91v47H61.68v-47Z"/></g></g></svg>