<svg xmlns="http://www.w3.org/2000/svg" viewBox="0 0 66.04 53.08"><defs><style>.cls-1{fill:#d1d5db;}.cls-2{fill:#6b7280;}</style></defs><g id="レイヤー_2" data-name="レイヤー 2"><g id="light"><path class="cls-1" d="M62.61,11.32a3.43,3.43,0,0,0-3.31,2.55H32.07V11.78l-5,3.1,5,3.21V15.87h27.3a3.43,3.43,0,1,0,3.24-4.55Z"/><path class="cls-1" d="M61.59,2V48.58H2V2H61.59m2-2H0V50.58H63.59V0Z"/><circle class="cls-1" cx="9.98" cy="49.65" r="3.44"/><polygon class="cls-1" points="6.65 19.11 12.96 19.11 9.86 14.12 6.65 19.11"/><rect class="cls-2" x="10.57" y="1.18" width="28.92" height="4.22"/><path class="cls-2" d="M48.26,2V31.94H2V2H48.26m2-2H0V33.94H50.26V0Z"/><rect class="cls-1" x="-6.98" y="34.02" width="33.7" height="2" transform="translate(44.88 25.15) rotate(90)"/></g></g></svg>