<svg xmlns="http://www.w3.org/2000/svg" viewBox="0 0 54.87 43.9"><defs><style>.cls-1{fill:#d1d5db;}.cls-2{fill:#fff;}.cls-3{fill:#6b7280;}</style></defs><g id="レイヤー_2" data-name="レイヤー 2"><g id="レイヤー_4" data-name="レイヤー 4"><rect class="cls-1" width="54.87" height="43.9"/><rect class="cls-2" x="2.66" y="2.66" width="40.87" height="29.65"/><path class="cls-1" d="M29.5,15.68a11.26,11.26,0,0,0,1.43-1.44,6.46,6.46,0,0,0,.91-3l-9.52,2.27s.91-5.44-3.63-6.35a5.9,5.9,0,0,0-5.43,2,7.65,7.65,0,0,0-1.08,2H9.26a4.84,4.84,0,0,0,1,2.26,4.11,4.11,0,0,0,1.22.73,13.18,13.18,0,0,0,.08,2.71c.9,6.81,9.25,8.06,14.13,6.58,6-1.81,6.8-8.31,6.8-8.31ZM16.8,12.8a1.66,1.66,0,1,1,1.66-1.66A1.66,1.66,0,0,1,16.8,12.8Z"/><polygon class="cls-3" points="11.75 42.08 11.75 31.64 14.57 31.64 10.4 24.92 6.07 31.64 9.05 31.64 9.05 42.18 11.75 42.08"/></g></g></svg>