<svg xmlns="http://www.w3.org/2000/svg" viewBox="0 0 63.59 50.58"><defs><style>.cls-1{fill:#d1d5db;}</style></defs><g id="レイヤー_2" data-name="レイヤー 2"><g id="light"><path class="cls-1" d="M7.52,36.68H8.83L12,45.28H10.68l-.87-2.57H6.4l-.93,2.57H4.28Zm1.91,5.08L8.12,38,6.74,41.76Z"/><path class="cls-1" d="M13,36.68h3.72a2.46,2.46,0,0,1,2.16.9,2,2,0,0,1,.38,1.23,2,2,0,0,1-.46,1.34,2.28,2.28,0,0,1-.69.5,3,3,0,0,1,1,.57,2.07,2.07,0,0,1,.58,1.55,2.4,2.4,0,0,1-.53,1.51,3,3,0,0,1-2.49,1H13Zm3.28,3.64a2.58,2.58,0,0,0,1.16-.21A1.17,1.17,0,0,0,18.09,39a1.14,1.14,0,0,0-.7-1.14,3.12,3.12,0,0,0-1.16-.16h-2.1v2.67Zm.4,4a1.81,1.81,0,0,0,1.54-.62,1.51,1.51,0,0,0,.29-1,1.27,1.27,0,0,0-.84-1.28,3.27,3.27,0,0,0-1.19-.18H14.13v3Z"/><path class="cls-1" d="M61.59,2V48.58H2V2H61.59m2-2H0V50.58H63.59V0Z"/></g></g></svg>