<svg xmlns="http://www.w3.org/2000/svg" viewBox="0 0 54.87 43.9"><defs><style>.cls-1{fill:#d1d5db;}.cls-2{fill:#fff;}.cls-3{font-size:12px;fill:#6b7280;font-family:Arial-BoldMT, Arial;font-weight:700;}</style></defs><g id="レイヤー_2" data-name="レイヤー 2"><g id="レイヤー_4" data-name="レイヤー 4"><rect class="cls-1" width="54.87" height="43.9"/><rect class="cls-2" x="4.76" y="3.81" width="45.35" height="36.28"/><path class="cls-1" d="M35.62,23.42a9.55,9.55,0,0,0,1.23-1.24,5.52,5.52,0,0,0,.78-2.53l-8.18,2s.78-4.68-3.12-5.46a5.09,5.09,0,0,0-4.67,1.71,6.65,6.65,0,0,0-.93,1.71H18.22a4.07,4.07,0,0,0,.89,1.94,3.13,3.13,0,0,0,1.05.63,11,11,0,0,0,.06,2.34c.78,5.85,8,6.92,12.15,5.65C37.5,28.55,38.22,23,38.22,23ZM24.7,21a1.43,1.43,0,1,1,1.43-1.43A1.43,1.43,0,0,1,24.7,21Z"/><text class="cls-3" transform="translate(29.05 37.43)">AB</text></g></g></svg>