<svg xmlns="http://www.w3.org/2000/svg" viewBox="0 0 63.59 50.58"><defs><style>.cls-1{fill:#d1d5db;}</style></defs><g id="レイヤー_2" data-name="レイヤー 2"><g id="light"><path class="cls-1" d="M46.53,36.68h1.32L51,45.28H49.7l-.88-2.57h-3.4l-.93,2.57h-1.2Zm1.92,5.08L47.14,38l-1.39,3.81Z"/><path class="cls-1" d="M52,36.68h3.72a2.48,2.48,0,0,1,2.16.9,2.06,2.06,0,0,1,.38,1.23,2,2,0,0,1-.46,1.34,2.28,2.28,0,0,1-.69.5,3,3,0,0,1,1,.57,2.07,2.07,0,0,1,.58,1.55,2.4,2.4,0,0,1-.53,1.51,3,3,0,0,1-2.49,1H52Zm3.28,3.64a2.58,2.58,0,0,0,1.16-.21A1.16,1.16,0,0,0,57.1,39a1.13,1.13,0,0,0-.69-1.14,3.15,3.15,0,0,0-1.16-.16h-2.1v2.67Zm.4,4a1.81,1.81,0,0,0,1.54-.62,1.58,1.58,0,0,0,.29-1,1.26,1.26,0,0,0-.85-1.28,3.22,3.22,0,0,0-1.18-.18H53.15v3Z"/><path class="cls-1" d="M61.59,2V48.58H2V2H61.59m2-2H0V50.58H63.59V0Z"/></g></g></svg>