<svg xmlns="http://www.w3.org/2000/svg" viewBox="0 0 63.59 50.58"><defs><style>.cls-1{fill:#d1d5db;}</style></defs><g id="レイヤー_2" data-name="レイヤー 2"><g id="light"><path class="cls-1" d="M27.45,36.68h1.31l3.13,8.6H30.61l-.87-2.57H26.33l-.93,2.57H24.21Zm1.91,5.08L28.06,38l-1.39,3.81Z"/><path class="cls-1" d="M32.92,36.68h3.72a2.49,2.49,0,0,1,2.17.9,2.06,2.06,0,0,1,.37,1.23,2,2,0,0,1-.46,1.34,2.28,2.28,0,0,1-.69.5,3,3,0,0,1,1,.57,2,2,0,0,1,.58,1.55,2.4,2.4,0,0,1-.53,1.51,3,3,0,0,1-2.49,1H32.92Zm3.29,3.64a2.64,2.64,0,0,0,1.16-.21A1.18,1.18,0,0,0,38,39a1.12,1.12,0,0,0-.7-1.14,3.12,3.12,0,0,0-1.16-.16h-2.1v2.67Zm.39,4a1.81,1.81,0,0,0,1.54-.62,1.51,1.51,0,0,0,.29-1,1.27,1.27,0,0,0-.84-1.28,3.27,3.27,0,0,0-1.19-.18H34.06v3Z"/><path class="cls-1" d="M61.59,2V48.58H2V2H61.59m2-2H0V50.58H63.59V0Z"/></g></g></svg>