<svg xmlns="http://www.w3.org/2000/svg" viewBox="0 0 63.59 50.58"><defs><style>.cls-1{fill:#d1d5db;}</style></defs><g id="レイヤー_2" data-name="レイヤー 2"><g id="light"><path class="cls-1" d="M7.52,5.9H8.83L12,14.51H10.68l-.87-2.58H6.4l-.93,2.58H4.28ZM9.43,11,8.12,7.18,6.74,11Z"/><path class="cls-1" d="M13,5.9h3.72a2.46,2.46,0,0,1,2.16.9A2,2,0,0,1,19.25,8a1.93,1.93,0,0,1-.46,1.34,2.28,2.28,0,0,1-.69.5,3,3,0,0,1,1,.57A2.11,2.11,0,0,1,19.67,12a2.39,2.39,0,0,1-.53,1.5,3,3,0,0,1-2.49,1H13Zm3.28,3.64a2.75,2.75,0,0,0,1.16-.2,1.19,1.19,0,0,0,.66-1.17A1.11,1.11,0,0,0,17.39,7a3.08,3.08,0,0,0-1.16-.17h-2.1V9.54Zm.4,4a1.78,1.78,0,0,0,1.54-.62,1.51,1.51,0,0,0,.29-1,1.25,1.25,0,0,0-.84-1.27,3.05,3.05,0,0,0-1.19-.19H14.13v3Z"/><path class="cls-1" d="M61.59,2V48.58H2V2H61.59m2-2H0V50.58H63.59V0Z"/></g></g></svg>