<svg xmlns="http://www.w3.org/2000/svg" viewBox="0 0 63.59 50.58"><defs><style>.cls-1{fill:#d1d5db;}</style></defs><g id="レイヤー_2" data-name="レイヤー 2"><g id="light"><path class="cls-1" d="M27.45,5.9h1.31l3.13,8.61H30.61l-.87-2.58H26.33l-.93,2.58H24.21ZM29.36,11l-1.3-3.8L26.67,11Z"/><path class="cls-1" d="M32.92,5.9h3.72a2.49,2.49,0,0,1,2.17.9A2.1,2.1,0,0,1,39.18,8a1.93,1.93,0,0,1-.46,1.34,2.28,2.28,0,0,1-.69.5,3,3,0,0,1,1,.57A2.07,2.07,0,0,1,39.6,12a2.39,2.39,0,0,1-.53,1.5,3,3,0,0,1-2.49,1H32.92Zm3.29,3.64a2.81,2.81,0,0,0,1.16-.2A1.2,1.2,0,0,0,38,8.17,1.1,1.1,0,0,0,37.32,7a3.08,3.08,0,0,0-1.16-.17h-2.1V9.54Zm.39,4a1.78,1.78,0,0,0,1.54-.62,1.51,1.51,0,0,0,.29-1,1.25,1.25,0,0,0-.84-1.27,3.05,3.05,0,0,0-1.19-.19H34.06v3Z"/><path class="cls-1" d="M61.59,2V48.58H2V2H61.59m2-2H0V50.58H63.59V0Z"/></g></g></svg>