<svg xmlns="http://www.w3.org/2000/svg" viewBox="0 0 54.87 43.9"><defs><style>.cls-1{fill:#6b7280;}.cls-2{fill:#d1d5db;}.cls-3{fill:#fff;}</style></defs><g id="レイヤー_2" data-name="レイヤー 2"><g id="レイヤー_4" data-name="レイヤー 4"><rect class="cls-1" x="3.64" y="4.19" width="51.23" height="39.7"/><rect class="cls-2" width="50.33" height="38.76"/><rect class="cls-3" x="4.37" y="3.36" width="41.6" height="32.03"/><path class="cls-2" d="M32,18.22A10.48,10.48,0,0,0,33.19,17,5.5,5.5,0,0,0,34,14.42l-8.26,2s.78-4.72-3.15-5.51a5.15,5.15,0,0,0-4.72,1.73,6.72,6.72,0,0,0-.93,1.72H14.39a4.15,4.15,0,0,0,.89,2,3.27,3.27,0,0,0,1.06.63,11.84,11.84,0,0,0,.06,2.36c.79,5.9,8,7,12.27,5.71,5.18-1.58,5.9-7.22,5.9-7.22Zm-11-2.49a1.45,1.45,0,1,1,1.44-1.45A1.44,1.44,0,0,1,20.93,15.73Z"/></g></g></svg>