<svg xmlns="http://www.w3.org/2000/svg" viewBox="0 0 50.58 63.59"><defs><style>.cls-1{fill:#d1d5db;}</style></defs><g id="レイヤー_2" data-name="レイヤー 2"><g id="light"><path class="cls-1" d="M48.58,2V61.59H2V2H48.58m2-2H0V63.59H50.58V0Z"/><rect class="cls-1" x="44.79" y="14.45" width="4.99" height="34.24"/><path class="cls-1" d="M29.9,22.85v1.31l-8.61,3.13V26l2.58-.87V21.73l-2.58-.93V19.61Zm-5.08,1.91,3.8-1.3-3.8-1.39Z"/><path class="cls-1" d="M29.9,28.32V32A2.47,2.47,0,0,1,29,34.2a2,2,0,0,1-1.23.38,1.91,1.91,0,0,1-1.33-.46,2.14,2.14,0,0,1-.51-.69,2.84,2.84,0,0,1-.57,1A2.07,2.07,0,0,1,23.8,35a2.37,2.37,0,0,1-1.5-.53,2.93,2.93,0,0,1-1-2.49V28.32ZM22.28,32a1.81,1.81,0,0,0,.62,1.54,1.53,1.53,0,0,0,1,.29A1.27,1.27,0,0,0,25.13,33a3.27,3.27,0,0,0,.18-1.19V29.46h-3Zm4-.4a2.6,2.6,0,0,0,.2,1.16,1.18,1.18,0,0,0,1.16.66,1.12,1.12,0,0,0,1.14-.7,3.12,3.12,0,0,0,.16-1.16v-2.1H26.26Z"/><path class="cls-1" d="M29.27,42.44a3.12,3.12,0,0,1-2,1V42.29a2.35,2.35,0,0,0,1.32-.75A2.4,2.4,0,0,0,29.12,40a2.52,2.52,0,0,0-.9-2,4.13,4.13,0,0,0-2.74-.77,4,4,0,0,0-2.45.69,2.42,2.42,0,0,0-1,2.07,2.17,2.17,0,0,0,1,1.93,3.83,3.83,0,0,0,1.38.53v1.13a3.9,3.9,0,0,1-2.28-1,3.9,3.9,0,0,1-.2-5.23A4.78,4.78,0,0,1,25.68,36a4.78,4.78,0,0,1,3.12,1,3.61,3.61,0,0,1,1.33,3A3.49,3.49,0,0,1,29.27,42.44Z"/></g></g></svg>