<svg xmlns="http://www.w3.org/2000/svg" viewBox="0 0 54.87 43.9"><defs><style>.cls-1{fill:#d1d5db;}.cls-2{fill:#fff;}</style></defs><g id="レイヤー_2" data-name="レイヤー 2"><g id="レイヤー_4" data-name="レイヤー 4"><rect class="cls-1" width="54.87" height="43.9"/><rect class="cls-2" x="4.76" y="3.81" width="45.35" height="36.28"/><path class="cls-1" d="M36.81,21a11.76,11.76,0,0,0,1.44-1.44,6.46,6.46,0,0,0,.91-2.95l-9.53,2.27s.91-5.44-3.62-6.35a5.93,5.93,0,0,0-5.44,2,8.3,8.3,0,0,0-1.08,2H16.58a4.73,4.73,0,0,0,1,2.26,3.91,3.91,0,0,0,1.22.73,13.26,13.26,0,0,0,.07,2.72c.91,6.8,9.26,8.05,14.14,6.57,6-1.81,6.8-8.31,6.8-8.31ZM24.12,18.12a1.66,1.66,0,1,1,1.66-1.66A1.66,1.66,0,0,1,24.12,18.12Z"/></g></g></svg>