<svg xmlns="http://www.w3.org/2000/svg" viewBox="0 0 50.58 63.59"><defs><style>.cls-1{fill:#d1d5db;}</style></defs><g id="レイヤー_2" data-name="レイヤー 2"><g id="light"><path class="cls-1" d="M48.58,2V61.59H2V2H48.58m2-2H0V63.59H50.58V0Z"/><rect class="cls-1" x="0.79" y="14.9" width="4.99" height="34.24"/><path class="cls-1" d="M20.68,40.74V39.42l8.61-3.12v1.28l-2.58.87v3.41l2.58.93V44Zm5.08-1.91L22,40.13l3.8,1.39Z"/><path class="cls-1" d="M20.68,35.27V31.55a2.48,2.48,0,0,1,.9-2.17A2.1,2.1,0,0,1,22.81,29a1.93,1.93,0,0,1,1.34.46,2.28,2.28,0,0,1,.5.69,3,3,0,0,1,.57-1,2.05,2.05,0,0,1,1.55-.58,2.4,2.4,0,0,1,1.51.53,3,3,0,0,1,1,2.49v3.66ZM24.32,32a2.64,2.64,0,0,0-.21-1.16A1.18,1.18,0,0,0,23,30.17a1.1,1.1,0,0,0-1.13.7A3.08,3.08,0,0,0,21.65,32v2.1h2.67Zm4-.39a1.79,1.79,0,0,0-.62-1.54,1.51,1.51,0,0,0-1-.29,1.27,1.27,0,0,0-1.28.84,3.27,3.27,0,0,0-.18,1.19v2.34h3Z"/><path class="cls-1" d="M21.31,21.15a3,3,0,0,1,2-1V21.3a2.3,2.3,0,0,0-1.31.75,2.35,2.35,0,0,0-.49,1.59,2.54,2.54,0,0,0,.89,2,4.15,4.15,0,0,0,2.74.77,4.07,4.07,0,0,0,2.46-.69,2.42,2.42,0,0,0,.94-2.07,2.17,2.17,0,0,0-1-1.93,3.77,3.77,0,0,0-1.37-.53V20.08a3.9,3.9,0,0,1,2.28,1,3.54,3.54,0,0,1,1.11,2.74,3.6,3.6,0,0,1-.91,2.49,4.78,4.78,0,0,1-3.71,1.32,4.81,4.81,0,0,1-3.13-1,3.63,3.63,0,0,1-1.32-3A3.43,3.43,0,0,1,21.31,21.15Z"/></g></g></svg>