<svg xmlns="http://www.w3.org/2000/svg" viewBox="0 0 63.59 50.58"><defs><style>.cls-1{fill:#d1d5db;}</style></defs><g id="レイヤー_2" data-name="レイヤー 2"><g id="light"><path class="cls-1" d="M61.59,2V48.58H2V2H61.59m2-2H0V50.58H63.59V0Z"/><rect class="cls-1" x="14.9" y="44.79" width="34.24" height="4.99"/><path class="cls-1" d="M40.74,29.89H39.43l-3.13-8.6h1.28l.87,2.58h3.41l.93-2.58H44Zm-1.91-5.08,1.3,3.81,1.39-3.81Z"/><path class="cls-1" d="M35.27,29.89H31.55a2.49,2.49,0,0,1-2.17-.9A2.06,2.06,0,0,1,29,27.76a1.91,1.91,0,0,1,.46-1.33,2.14,2.14,0,0,1,.69-.51,3,3,0,0,1-1-.57,2,2,0,0,1-.58-1.55,2.42,2.42,0,0,1,.53-1.51,3,3,0,0,1,2.49-1h3.66Zm-3.68-7.61a1.81,1.81,0,0,0-1.54.62,1.53,1.53,0,0,0-.29,1,1.27,1.27,0,0,0,.84,1.28,3.27,3.27,0,0,0,1.19.18h2.34v-3Zm.4,4a2.68,2.68,0,0,0-1.17.2,1.19,1.19,0,0,0-.65,1.16,1.12,1.12,0,0,0,.7,1.14,3.12,3.12,0,0,0,1.16.16h2.1V26.26Z"/><path class="cls-1" d="M21.15,29.27a3.12,3.12,0,0,1-1-2H21.3a2.16,2.16,0,0,0,2.34,1.81,2.52,2.52,0,0,0,2-.9,4.15,4.15,0,0,0,.77-2.74A4,4,0,0,0,25.74,23a2.42,2.42,0,0,0-2.07-1,2.17,2.17,0,0,0-1.93,1,3.83,3.83,0,0,0-.53,1.38H20.08a3.9,3.9,0,0,1,1-2.28,3.54,3.54,0,0,1,2.74-1.11A3.56,3.56,0,0,1,26.3,22a4.78,4.78,0,0,1,1.32,3.71,4.78,4.78,0,0,1-1,3.12,3.61,3.61,0,0,1-3,1.33A3.47,3.47,0,0,1,21.15,29.27Z"/></g></g></svg>