<svg xmlns="http://www.w3.org/2000/svg" viewBox="0 0 54.87 43.9"><defs><style>.cls-1{fill:#d1d5db;}.cls-2{fill:#fff;}</style></defs><g id="レイヤー_2" data-name="レイヤー 2"><g id="レイヤー_4" data-name="レイヤー 4"><rect class="cls-1" width="54.87" height="43.9"/><rect class="cls-2" x="4.76" y="3.81" width="45.35" height="36.28" transform="translate(54.87 43.9) rotate(180)"/><path class="cls-1" d="M18.05,22.9a12,12,0,0,0-1.43,1.44,6.43,6.43,0,0,0-.91,2.94L25.23,25s-.9,5.44,3.63,6.34a5.93,5.93,0,0,0,5.44-2,8.11,8.11,0,0,0,1.08-2h2.91a4.69,4.69,0,0,0-1-2.26A4,4,0,0,0,36,24.4,13.16,13.16,0,0,0,36,21.69c-.91-6.8-9.26-8.06-14.14-6.58-6,1.82-6.8,8.32-6.8,8.32Zm12.7,2.87a1.67,1.67,0,1,1-1.66,1.66A1.67,1.67,0,0,1,30.75,25.77Z"/></g></g></svg>