<svg xmlns="http://www.w3.org/2000/svg" viewBox="0 0 43.9 54.87"><defs><style>.cls-1{fill:#d1d5db;}.cls-2{fill:#fff;}</style></defs><g id="レイヤー_2" data-name="レイヤー 2"><g id="レイヤー_4" data-name="レイヤー 4"><rect class="cls-1" width="43.9" height="54.87"/><rect class="cls-2" x="-0.73" y="9.29" width="45.35" height="36.28" transform="translate(49.38 5.49) rotate(90)"/><path class="cls-1" d="M22.9,36.81a11.76,11.76,0,0,0,1.44,1.44,6.43,6.43,0,0,0,2.94.91L25,29.63s5.44.91,6.34-3.62a5.93,5.93,0,0,0-2-5.44,8.11,8.11,0,0,0-2-1.08V16.58a4.69,4.69,0,0,0-2.26,1,4,4,0,0,0-.74,1.22,13.16,13.16,0,0,0-2.71.07c-6.8.91-8.06,9.26-6.58,14.14,1.82,6,8.32,6.8,8.32,6.8Zm2.87-12.69a1.67,1.67,0,1,1,1.66,1.66A1.67,1.67,0,0,1,25.77,24.12Z"/></g></g></svg>