<svg xmlns="http://www.w3.org/2000/svg" viewBox="0 0 43.9 54.87"><defs><style>.cls-1{fill:#d1d5db;}.cls-2{fill:#fff;}</style></defs><g id="レイヤー_2" data-name="レイヤー 2"><g id="レイヤー_4" data-name="レイヤー 4"><rect class="cls-1" width="43.9" height="54.87"/><rect class="cls-2" x="-0.73" y="9.29" width="45.35" height="36.28" transform="translate(-5.49 49.38) rotate(-90)"/><path class="cls-1" d="M21,18.05a12,12,0,0,0-1.44-1.43,6.46,6.46,0,0,0-2.95-.91l2.27,9.52s-5.44-.9-6.35,3.63a5.93,5.93,0,0,0,2,5.44,8.3,8.3,0,0,0,2,1.08v2.91a4.73,4.73,0,0,0,2.26-1A3.91,3.91,0,0,0,19.49,36,13.26,13.26,0,0,0,22.21,36c6.8-.91,8.05-9.26,6.57-14.14-1.81-6-8.31-6.8-8.31-6.8Zm-2.88,12.7a1.66,1.66,0,1,1-1.66-1.66A1.66,1.66,0,0,1,18.12,30.75Z"/></g></g></svg>