<svg xmlns="http://www.w3.org/2000/svg" viewBox="0 0 66.7 47.18"><defs><style>.cls-1{fill:#d1d5db;}</style></defs><g id="レイヤー_2" data-name="レイヤー 2"><g id="light"><polygon class="cls-1" points="36.98 0 27.87 0 27.87 18.68 18.36 18.68 32.44 30.15 47.06 18.68 36.98 18.68 36.98 0"/><path class="cls-1" d="M10.53,47H8.22l-.91-2.38H3.11L2.25,47H0L4.09,36.51H6.33Zm-3.9-4.15L5.18,39,3.76,42.85Z"/><path class="cls-1" d="M11.66,36.51h4.19a11.9,11.9,0,0,1,1.86.11,2.68,2.68,0,0,1,1.09.43,2.65,2.65,0,0,1,.81.88,2.39,2.39,0,0,1,.32,1.22,2.43,2.43,0,0,1-.4,1.36,2.46,2.46,0,0,1-1.07.92,2.74,2.74,0,0,1,1.47,1A2.5,2.5,0,0,1,20.45,44a3,3,0,0,1-.34,1.39,2.77,2.77,0,0,1-.9,1.09,3,3,0,0,1-1.43.49c-.35,0-1.2.06-2.55.07H11.66Zm2.12,1.75v2.43h1.39c.82,0,1.33,0,1.53,0a1.37,1.37,0,0,0,.86-.38,1.09,1.09,0,0,0,.31-.82,1.17,1.17,0,0,0-.27-.79,1.25,1.25,0,0,0-.8-.37c-.21,0-.81,0-1.81,0Zm0,4.17v2.81h2a8.39,8.39,0,0,0,1.45-.07,1.23,1.23,0,0,0,.77-.42,1.28,1.28,0,0,0,.3-.89,1.4,1.4,0,0,0-.23-.8,1.31,1.31,0,0,0-.66-.48,7.25,7.25,0,0,0-1.88-.15Z"/><path class="cls-1" d="M29,43.15,31,43.8a4.62,4.62,0,0,1-1.57,2.55,4.45,4.45,0,0,1-2.79.83,4.51,4.51,0,0,1-3.43-1.42,5.48,5.48,0,0,1-1.35-3.91,5.72,5.72,0,0,1,1.36-4.07,4.64,4.64,0,0,1,3.55-1.45,4.35,4.35,0,0,1,3.13,1.14A4,4,0,0,1,31,39.4l-2.09.5a2.25,2.25,0,0,0-.78-1.28,2.19,2.19,0,0,0-1.43-.48,2.4,2.4,0,0,0-1.9.84,4.13,4.13,0,0,0-.72,2.71,4.45,4.45,0,0,0,.71,2.84,2.34,2.34,0,0,0,1.86.84,2.17,2.17,0,0,0,1.46-.53A3.18,3.18,0,0,0,29,43.15Z"/><path class="cls-1" d="M32.81,47V45h2v2Z"/><path class="cls-1" d="M36.89,47V36.51h3.4a12.63,12.63,0,0,1,2.52.16,2.74,2.74,0,0,1,1.51,1,3.22,3.22,0,0,1,.61,2,3.44,3.44,0,0,1-.35,1.62,2.85,2.85,0,0,1-.89,1,3.09,3.09,0,0,1-1.1.5,12.18,12.18,0,0,1-2.2.15H39v4ZM39,38.29v3h1.16a5.57,5.57,0,0,0,1.68-.16,1.37,1.37,0,0,0,.66-.52,1.38,1.38,0,0,0,.24-.81,1.35,1.35,0,0,0-.34-1,1.49,1.49,0,0,0-.85-.46A9.87,9.87,0,0,0,40,38.29Z"/><path class="cls-1" d="M46.69,47V36.51h2.06l4.3,7v-7h2V47H52.89l-4.23-6.84V47Z"/><path class="cls-1" d="M62.14,43.15V41.38H66.7v4.18a5.62,5.62,0,0,1-1.93,1.13,6.93,6.93,0,0,1-2.56.49,5.78,5.78,0,0,1-2.87-.69,4.42,4.42,0,0,1-1.83-2,6.28,6.28,0,0,1-.62-2.8,6,6,0,0,1,.69-2.91,4.57,4.57,0,0,1,2-2,5.39,5.39,0,0,1,2.51-.53,5,5,0,0,1,3.05.82,3.72,3.72,0,0,1,1.42,2.27l-2.11.39a2.24,2.24,0,0,0-.83-1.22,2.52,2.52,0,0,0-1.53-.45,2.9,2.9,0,0,0-2.21.88,3.76,3.76,0,0,0-.82,2.62,4.13,4.13,0,0,0,.83,2.8,2.79,2.79,0,0,0,2.18.93,3.5,3.5,0,0,0,1.33-.26,4.34,4.34,0,0,0,1.15-.63V43.15Z"/></g></g></svg>