<svg xmlns="http://www.w3.org/2000/svg" viewBox="0 0 67.59 54.58"><defs><style>.cls-1{fill:#b6babf;}.cls-2{fill:#d1d5db;}</style></defs><g id="レイヤー_2" data-name="レイヤー 2"><g id="light"><path class="cls-1" d="M21.33,22.66h1.78l4.22,11.63H25.61L24.43,30.8h-4.6l-1.26,3.49H17Zm2.59,6.86-1.77-5.14-1.87,5.14Z"/><path class="cls-1" d="M28.72,22.66h5a3.34,3.34,0,0,1,2.93,1.22,2.79,2.79,0,0,1,.51,1.66,2.6,2.6,0,0,1-.63,1.8,3,3,0,0,1-.93.68,4.05,4.05,0,0,1,1.33.77,2.77,2.77,0,0,1,.79,2.1,3.22,3.22,0,0,1-.71,2,4,4,0,0,1-3.37,1.37h-5Zm5,10.28a2.42,2.42,0,0,0,2.08-.84,2.09,2.09,0,0,0,.39-1.28A1.71,1.71,0,0,0,35,29.09a4.44,4.44,0,0,0-1.61-.24H30.27v4.09Zm-.54-5.37a3.66,3.66,0,0,0,1.57-.27,1.6,1.6,0,0,0,.88-1.57,1.52,1.52,0,0,0-.93-1.54A4.48,4.48,0,0,0,33.11,24H30.27v3.6Z"/><path class="cls-1" d="M47.8,23.5a4.17,4.17,0,0,1,1.34,2.65H47.6a2.93,2.93,0,0,0-3.17-2.44,3.4,3.4,0,0,0-2.72,1.21,5.58,5.58,0,0,0-1,3.7,5.42,5.42,0,0,0,.94,3.32,3.23,3.23,0,0,0,2.79,1.27A3,3,0,0,0,47,31.87,5.38,5.38,0,0,0,47.72,30h1.53a5.33,5.33,0,0,1-1.34,3.08,5.26,5.26,0,0,1-7.06.27,6.45,6.45,0,0,1-1.8-5,6.45,6.45,0,0,1,1.35-4.22,4.9,4.9,0,0,1,4-1.79A4.69,4.69,0,0,1,47.8,23.5Z"/><path class="cls-2" d="M63.59,4V50.58H4V4H63.59m4-4H0V54.58H67.59V0Z"/><rect class="cls-2" x="19.55" y="3.62" width="28.7" height="6.16"/></g></g></svg>