<svg xmlns="http://www.w3.org/2000/svg" viewBox="0 0 111.07 111.07"><defs><style>.bg{fill:#1da1f2;}.fg{fill:#000;}</style></defs><circle class="bg" cx="55.53" cy="55.53" r="55.53"/><path class="fg" d="M95.49,54C93.18,43.7,87.25,37.7,80.05,34.28a82.23,82.23,0,0,0-2.35-8.4,58.52,58.52,0,0,0-6.41-13.06A45.53,45.53,0,0,0,66.15,22c-1,2.42-2.14,5.52-3.07,8.26-2.73-.18-5.4-.2-7.91-.12-3.32.1-6.51.18-9.57.38-1-3.1-2.4-7.07-3.66-10a45.53,45.53,0,0,0-5.12-9.17,58.33,58.33,0,0,0-6.43,13.05,83.33,83.33,0,0,0-2.93,11.08C22,39,17.42,45,14.11,55.48,5.49,82.83,33,96.55,59.12,95.1S101.61,81.09,95.49,54Z"/></svg>
