<svg xmlns="http://www.w3.org/2000/svg" viewBox="0 0 88.01 66.68"><defs><style>.cls-1{fill:#dce0e5;}.cls-2{fill:#fff;}.cls-3{fill:#e8e9ea;}.cls-4{fill:#f96806;}.cls-5{fill:#7e7f7f;}.cls-6{fill:none;stroke:#fff;stroke-miterlimit:10;stroke-width:2px;}</style></defs><g id="レイヤー_2" data-name="レイヤー 2"><g id="レイヤー_1-2" data-name="レイヤー 1"><rect class="cls-1" width="88.01" height="66.68"/><rect class="cls-2" x="2.76" y="2.26" width="82.36" height="9.46"/><rect class="cls-2" x="2.76" y="15.66" width="19.88" height="46.64"/><rect class="cls-3" x="27.97" y="15.66" width="25.77" height="46.64"/><rect class="cls-2" x="59.35" y="15.66" width="25.77" height="46.64"/><rect class="cls-4" x="31.3" y="19.67" width="19.15" height="12.48" rx="2.37"/><rect class="cls-5" x="63.8" y="19.88" width="17.74" height="14.89"/><rect class="cls-6" x="63.8" y="19.88" width="17.74" height="14.89"/><path class="cls-2" d="M73.3,26.52l4.57-1.09a3,3,0,0,1-.43,1.41,5.76,5.76,0,0,1-.69.69l1.45-.25a5,5,0,0,1-3.27,4c-2.34.71-6.35.11-6.78-3.16a4.81,4.81,0,0,1,.8-3.69,2.82,2.82,0,0,1,2.61-1C73.74,23.9,73.3,26.52,73.3,26.52Z"/><path class="cls-2" d="M68.6,25.38H67a2.27,2.27,0,0,0,.5,1.09,2.25,2.25,0,0,0,1,.47Z"/><circle class="cls-5" cx="70.65" cy="25.35" r="0.8"/><rect class="cls-5" x="63.8" y="40.92" width="17.74" height="14.89"/><rect class="cls-6" x="63.8" y="40.92" width="17.74" height="14.89"/><path class="cls-2" d="M73.3,47.56l4.57-1.09a3.08,3.08,0,0,1-.43,1.42,6.75,6.75,0,0,1-.69.69l1.45-.26a5,5,0,0,1-3.27,4c-2.34.72-6.35.11-6.78-3.15a4.79,4.79,0,0,1,.8-3.69,2.85,2.85,0,0,1,2.61-1C73.74,45,73.3,47.56,73.3,47.56Z"/><path class="cls-2" d="M68.6,46.42H67a2.22,2.22,0,0,0,.5,1.08,2.25,2.25,0,0,0,1,.47Z"/><circle class="cls-5" cx="70.65" cy="46.4" r="0.8"/><rect class="cls-4" x="5.31" y="20.11" width="14.76" height="5.97" rx="2.37"/><rect class="cls-3" x="5.31" y="29.42" width="14.76" height="5.97" rx="2.37"/><rect class="cls-3" x="4.65" y="4.12" width="14.76" height="5.97" rx="2.37"/></g></g></svg>