<svg xmlns="http://www.w3.org/2000/svg" viewBox="0 0 88.01 66.68"><defs><style>.cls-1{fill:#dce0e5;}.cls-2{fill:#fff;}.cls-3{fill:#e8e9ea;}.cls-4{fill:#ccc;}.cls-5{fill:#7e7f7f;}.cls-6,.cls-7,.cls-8,.cls-9{fill:none;stroke:#fff;stroke-miterlimit:10;}.cls-6{stroke-width:0.5px;}.cls-8{stroke-dasharray:2.1 2.1;}.cls-9{stroke-dasharray:1.88 1.88;}.cls-10{fill:#f96806;}</style></defs><g id="レイヤー_2" data-name="レイヤー 2"><g id="レイヤー_1-2" data-name="レイヤー 1"><rect class="cls-1" width="88.01" height="66.68"/><rect class="cls-2" x="2.76" y="2.26" width="82.36" height="9.46"/><rect class="cls-3" x="5.31" y="3.9" width="14.76" height="5.97" rx="2.37"/><rect class="cls-2" x="2.98" y="15.89" width="17.79" height="47.04" rx="3.22"/><rect class="cls-4" x="5.75" y="21.43" width="12.07" height="1.78"/><rect class="cls-4" x="5.75" y="26.64" width="12.07" height="1.78"/><rect class="cls-4" x="5.75" y="31.74" width="12.07" height="1.78"/><rect class="cls-5" x="64.02" y="47.15" width="19.95" height="15.96"/><rect class="cls-6" x="66.13" y="49.27" width="15.37" height="11.97"/><polyline class="cls-7" points="59.67 42.47 59.67 43.47 58.67 43.47"/><line class="cls-8" x1="56.57" y1="43.47" x2="28.27" y2="43.47"/><polyline class="cls-7" points="27.23 43.47 26.23 43.47 26.23 42.47"/><line class="cls-9" x1="26.23" y1="40.59" x2="26.23" y2="18.95"/><polyline class="cls-7" points="26.23 18.01 26.23 17.01 27.23 17.01"/><line class="cls-8" x1="29.32" y1="17.01" x2="57.62" y2="17.01"/><polyline class="cls-7" points="58.67 17.01 59.67 17.01 59.67 18.01"/><line class="cls-9" x1="59.67" y1="19.89" x2="59.67" y2="41.53"/><path class="cls-2" d="M77.86,55.25a5.76,5.76,0,0,0,.69-.69A3.08,3.08,0,0,0,79,53.14l-4.57,1.09s.44-2.61-1.74-3a2.85,2.85,0,0,0-2.61,1,3.59,3.59,0,0,0-.52,1h-1.4a2.22,2.22,0,0,0,.5,1.08,1.8,1.8,0,0,0,.58.36,5.77,5.77,0,0,0,0,1.3C69.69,59.1,73.7,59.7,76,59a5,5,0,0,0,3.27-4Zm-6.1-1.38a.8.8,0,1,1,.8-.8A.8.8,0,0,1,71.76,53.87Z"/></g><g id="レイヤー_2-2" data-name="レイヤー 2"><polygon class="cls-10" points="52.04 21.65 39.86 28.57 52.04 36.11 52.04 21.65"/><path class="cls-10" d="M66.59,45.53v0c0-.27.68-6.58-6-10.85-5.24-3.37-13.76-2.65-13.85-2.64l-.55-6c.43-.05,10.65-.94,17.64,3.56A18,18,0,0,1,72.59,45.6S66.59,45.53,66.59,45.53Z"/></g></g></svg>