<svg xmlns="http://www.w3.org/2000/svg" viewBox="0 0 88.01 66.68"><defs><style>.cls-1{fill:#dce0e5;}.cls-2{fill:#fff;}.cls-3{fill:#e8e9ea;}.cls-4{fill:#ccc;}.cls-5{fill:#5fb0b2;}.cls-6{fill:none;stroke:#fff;stroke-miterlimit:10;stroke-width:0.5px;}.cls-7{fill:#f96806;}</style></defs><g id="レイヤー_2" data-name="レイヤー 2"><g id="レイヤー_1-2" data-name="レイヤー 1"><rect class="cls-1" width="88.01" height="66.68"/><rect class="cls-2" x="2.76" y="2.26" width="82.36" height="9.46"/><rect class="cls-3" x="5.31" y="3.9" width="14.76" height="5.97" rx="2.37"/><rect class="cls-2" x="2.98" y="15.89" width="17.79" height="47.04" rx="3.22"/><rect class="cls-4" x="5.75" y="21.43" width="12.07" height="1.78"/><rect class="cls-4" x="5.75" y="26.64" width="12.07" height="1.78"/><rect class="cls-4" x="5.75" y="31.74" width="12.07" height="1.78"/><rect class="cls-5" x="64.21" y="46.81" width="19.95" height="15.96"/><rect class="cls-6" x="66.32" y="48.93" width="15.37" height="11.97"/><path class="cls-2" d="M78,54.91a5.07,5.07,0,0,0,.69-.69,3.14,3.14,0,0,0,.44-1.42l-4.58,1.09s.44-2.61-1.74-3a2.86,2.86,0,0,0-2.61,1,3.57,3.57,0,0,0-.51,1h-1.4a2.26,2.26,0,0,0,.49,1.08,2,2,0,0,0,.59.36,6.38,6.38,0,0,0,0,1.3c.44,3.27,4.45,3.87,6.79,3.16a5,5,0,0,0,3.26-4ZM72,53.53a.8.8,0,1,1,.79-.8A.8.8,0,0,1,72,53.53Z"/></g><g id="レイヤー_2-2" data-name="レイヤー 2"><path class="cls-7" d="M65.49,36.33v0c0-.27.68-6.58-6-10.85-5.24-3.37-14.2-2.7-14.28-2.69l-.12-5.92c.44,0,10.65-.94,17.65,3.56A18,18,0,0,1,71.48,36.4S65.49,36.33,65.49,36.33Z"/><polygon class="cls-7" points="61.44 32.32 68.36 44.5 75.9 32.32 61.44 32.32"/></g></g></svg>